<svg width="16" height="16" viewBox="0 0 16 16" fill="none" xmlns="http://www.w3.org/2000/svg">
<g clip-path="url(#clip0_409_3742)">
<path d="M3 1.01001C1.892 1.01001 1 1.90201 1 3.01001V13.01C1 14.118 1.892 15.01 3 15.01H13C14.108 15.01 15 14.118 15 13.01V3.01001C15 1.90201 14.108 1.01001 13 1.01001H3ZM8 4.00001C9.06087 4.00001 10.0783 4.42144 10.8284 5.17158C11.5786 5.92173 12 6.93914 12 8.00001V8.50001C11.9999 8.80766 11.9052 9.10784 11.7288 9.35986C11.5523 9.61188 11.3027 9.80355 11.0136 9.90889C10.7245 10.0142 10.4101 10.0281 10.1129 9.94874C9.81564 9.86934 9.55001 9.70046 9.352 9.46501C8.98511 9.80775 8.50207 9.99889 8 10C7.60444 10 7.21776 9.88271 6.88886 9.66295C6.55996 9.44319 6.30362 9.13083 6.15224 8.76538C6.00087 8.39992 5.96126 7.99779 6.03843 7.60983C6.1156 7.22187 6.30608 6.8655 6.58579 6.5858C6.86549 6.30609 7.22186 6.11561 7.60982 6.03844C7.99778 5.96127 8.39991 6.00087 8.76537 6.15225C9.13082 6.30363 9.44318 6.55997 9.66294 6.88887C9.8827 7.21777 10 7.60445 10 8.00001V8.50001C10 8.63262 10.0527 8.7598 10.1464 8.85356C10.2402 8.94733 10.3674 9.00001 10.5 9.00001C10.6326 9.00001 10.7598 8.94733 10.8536 8.85356C10.9473 8.7598 11 8.63262 11 8.50001V8.00001C11 7.40667 10.8241 6.82665 10.4944 6.3333C10.1648 5.83995 9.69623 5.45543 9.14805 5.22837C8.59987 5.00131 7.99667 4.9419 7.41473 5.05765C6.83279 5.17341 6.29824 5.45913 5.87868 5.87869C5.45912 6.29825 5.1734 6.8328 5.05764 7.41474C4.94189 7.99668 5.0013 8.59988 5.22836 9.14806C5.45542 9.69624 5.83994 10.1648 6.33329 10.4944C6.82664 10.8241 7.40666 11 8 11H10.5C10.5 11 11 11 11 11.5C10.969 12 10.5 12 10.5 12H8C6.93913 12 5.92172 11.5786 5.17157 10.8284C4.42143 10.0783 4 9.06088 4 8.00001C4 6.93914 4.42143 5.92173 5.17157 5.17158C5.92172 4.42144 6.93913 4.00001 8 4.00001ZM8 7.00001C7.73478 7.00001 7.48043 7.10537 7.29289 7.2929C7.10536 7.48044 7 7.73479 7 8.00001C7 8.26523 7.10536 8.51958 7.29289 8.70712C7.48043 8.89465 7.73478 9.00001 8 9.00001C8.26522 9.00001 8.51957 8.89465 8.70711 8.70712C8.89464 8.51958 9 8.26523 9 8.00001C9 7.73479 8.89464 7.48044 8.70711 7.2929C8.51957 7.10537 8.26522 7.00001 8 7.00001Z" fill="#232323"/>
</g>
<defs>
<clipPath id="clip0_409_3742">
<rect width="16" height="16" fill="white"/>
</clipPath>
</defs>
</svg>
