<svg width="16" height="16" viewBox="0 0 16 16" fill="none" xmlns="http://www.w3.org/2000/svg">
<g clip-path="url(#clip0_409_3740)">
<path d="M6.25001 1L6.09601 2.844C5.51116 3.06059 4.96741 3.37507 4.48801 3.774L2.81201 2.984L1.06201 6.016L2.58401 7.072C2.52981 7.3784 2.50171 7.68885 2.50001 8C2.50016 8.31237 2.52693 8.62417 2.58001 8.932L1.06201 9.984L2.81201 13.015L4.48401 12.228C4.96506 12.6252 5.51017 12.9376 6.09601 13.152L6.25001 15H9.75001L9.90401 13.156C10.4889 12.9394 11.0326 12.6249 11.512 12.226L13.187 13.016L14.937 9.984L13.416 8.928C13.4702 8.6216 13.4983 8.31115 13.5 8C13.4999 7.68763 13.4731 7.37583 13.42 7.068L14.938 6.016L13.188 2.984L11.516 3.772C11.035 3.37481 10.4899 3.06235 9.90401 2.848L9.75001 1H6.25001ZM8.00001 6C8.53044 6 9.03915 6.21071 9.41422 6.58579C9.7893 6.96086 10 7.46957 10 8C10 8.53043 9.7893 9.03914 9.41422 9.41421C9.03915 9.78929 8.53044 10 8.00001 10C7.46958 10 6.96087 9.78929 6.5858 9.41421C6.21073 9.03914 6.00001 8.53043 6.00001 8C6.00001 7.46957 6.21073 6.96086 6.5858 6.58579C6.96087 6.21071 7.46958 6 8.00001 6Z" fill="#232323"/>
</g>
<defs>
<clipPath id="clip0_409_3740">
<rect width="16" height="16" fill="white"/>
</clipPath>
</defs>
</svg>
