<svg width="16" height="16" viewBox="0 0 16 16" fill="none" xmlns="http://www.w3.org/2000/svg">
<g clip-path="url(#clip0_409_3741)">
<path d="M3 1C1.892 1 1 1.892 1 3V5C1 5.26522 1.10536 5.51957 1.2929 5.70711C1.48043 5.89464 1.73479 6 2 6C2.26418 6 2.51763 5.89547 2.705 5.70923C2.89236 5.52299 2.99842 5.27018 3 5.006C3.00001 5.004 3.00001 5.002 3 5V3H13V13H3V11C3 10.7348 2.89465 10.4804 2.70711 10.2929C2.51957 10.1054 2.26522 10 2 10C1.73582 10 1.48238 10.1045 1.29501 10.2908C1.10765 10.477 1.00159 10.7298 1 10.994C0.999998 10.996 0.999998 10.998 1 11V13C1 14.108 1.892 15 3 15H13C14.108 15 15 14.108 15 13V3C15 1.892 14.108 1 13 1H3Z" fill="#232323"/>
<path d="M6.52 3.70996C6.3913 3.70996 6.26387 3.73531 6.14497 3.78456C6.02607 3.83381 5.91804 3.90599 5.82704 3.997C5.73603 4.088 5.66385 4.19603 5.6146 4.31493C5.56535 4.43383 5.54 4.56127 5.54 4.68996C5.54078 4.94982 5.64473 5.19873 5.829 5.38196L5.827 5.38396L7.46 7.01896L1 6.99696C0.734784 6.99696 0.48043 7.10232 0.292893 7.28985C0.105357 7.47739 0 7.73174 0 7.99696C0 8.26218 0.105357 8.51653 0.292893 8.70407C0.48043 8.8916 0.734784 8.99696 1 8.99696L7.46 9.01896L5.835 10.642L5.825 10.652C5.734 10.743 5.66182 10.851 5.61258 10.9699C5.56333 11.0888 5.53799 11.2163 5.538 11.345C5.538 11.4737 5.56335 11.6011 5.6126 11.72C5.66185 11.8389 5.73403 11.9469 5.82504 12.0379C5.91604 12.1289 6.02407 12.2011 6.14297 12.2504C6.26187 12.2996 6.3893 12.325 6.518 12.325C6.77757 12.3247 7.02644 12.2215 7.21 12.038L11.212 7.99796L7.236 4.02196L7.222 4.00696C7.21803 4.0036 7.21403 4.00026 7.21 3.99696C7.02669 3.81367 6.77823 3.71047 6.519 3.70996H6.52Z" fill="#232323"/>
</g>
<defs>
<clipPath id="clip0_409_3741">
<rect width="16" height="16" fill="white"/>
</clipPath>
</defs>
</svg>
