<svg width="16" height="16" viewBox="0 0 16 16" fill="none" xmlns="http://www.w3.org/2000/svg">
<g clip-path="url(#clip0_409_3734)">
<path d="M10 2C9.446 2 9 2.446 9 3V5L10.521 6.522C10.1705 7.43069 9.63426 8.25624 8.94653 8.94586C8.25879 9.63549 7.43472 10.174 6.527 10.527L5 9H3C2.446 9 2 9.446 2 10V13C2 13.554 2.446 14 3 14H4C5.31322 14 6.61358 13.7413 7.82683 13.2388C9.04009 12.7362 10.1425 11.9997 11.0711 11.0711C11.9997 10.1425 12.7362 9.04009 13.2388 7.82683C13.7413 6.61358 14 5.31322 14 4V3C14 2.446 13.554 2 13 2H10Z" fill="#232323"/>
</g>
<defs>
<clipPath id="clip0_409_3734">
<rect width="16" height="16" fill="white"/>
</clipPath>
</defs>
</svg>
