<svg width="16" height="16" viewBox="0 0 16 16" fill="none" xmlns="http://www.w3.org/2000/svg">
<g clip-path="url(#clip0_409_3733)">
<path d="M4.5 11L7.5 14C7.5 14 8 14.5 8.5 14L11.5 11H4.5Z" fill="#232323"/>
<path d="M8.14002 2.00999C6.81454 1.99045 5.4986 2.23704 4.27012 2.73517C3.04164 3.23329 1.92559 3.97283 0.988024 4.90999L0.287024 5.61199C0.194804 5.70395 0.121637 5.81321 0.0717143 5.9335C0.0217914 6.05379 -0.00390625 6.18275 -0.00390625 6.31299C-0.00390625 6.44323 0.0217914 6.57218 0.0717143 6.69247C0.121637 6.81276 0.194804 6.92202 0.287024 7.01399L2.39002 9.11599C2.48175 9.20827 2.59082 9.2815 2.71095 9.33147C2.83108 9.38144 2.95991 9.40717 3.09002 9.40717C3.22014 9.40717 3.34896 9.38144 3.4691 9.33147C3.58923 9.2815 3.6983 9.20827 3.79002 9.11599L4.99602 7.91199V5.65499L5.19302 5.57299C6.07658 5.18466 7.03145 4.98497 7.99658 4.98669C8.96171 4.98841 9.91586 5.19151 10.798 5.58299L10.996 5.65499V7.91299L11.5 8.41499L12.2 9.11499C12.2918 9.20742 12.4009 9.28077 12.5211 9.33084C12.6413 9.3809 12.7703 9.40667 12.9005 9.40667C13.0308 9.40667 13.1597 9.3809 13.2799 9.33084C13.4001 9.28077 13.5093 9.20742 13.601 9.11499L15.705 7.01499C15.7974 6.923 15.8707 6.81368 15.9207 6.6933C15.9707 6.57292 15.9965 6.44384 15.9965 6.31349C15.9965 6.18313 15.9707 6.05406 15.9207 5.93367C15.8707 5.81329 15.7974 5.70397 15.705 5.61199L15.004 4.91099C13.1804 3.08818 10.7182 2.0479 8.14002 2.01099V2.00999Z" fill="#F44336"/>
</g>
<defs>
<clipPath id="clip0_409_3733">
<rect width="16" height="16" fill="white"/>
</clipPath>
</defs>
</svg>
