<svg width="16" height="16" viewBox="0 0 16 16" fill="none" xmlns="http://www.w3.org/2000/svg">
<path d="M10 4C10 3.446 9.554 3 9 3H4C3.446 3 3 3.446 3 4C3 4.554 3.446 5 4 5H9C9.554 5 10 4.554 10 4ZM7 8C7 7.446 6.554 7 6 7H4C3.446 7 3 7.446 3 8C3 8.554 3.446 9 4 9H6C6.554 9 7 8.554 7 8ZM10 12C10 11.446 9.554 11 9 11H4C3.446 11 3 11.446 3 12C3 12.554 3.446 13 4 13H9C9.554 13 10 12.554 10 12Z" fill="#232323"/>
<path d="M12 5L9 8L12 11" stroke="#232323" stroke-width="2" stroke-linecap="round" stroke-linejoin="round"/>
</svg>
