<svg width="16" height="16" viewBox="0 0 16 16" fill="none" xmlns="http://www.w3.org/2000/svg">
<g clip-path="url(#clip0_409_3731)">
<path d="M3 1.01001C1.892 1.01001 1 1.90201 1 3.01001V13.01C1 14.118 1.892 15.01 3 15.01H13C14.108 15.01 15 14.118 15 13.01V3.01001C15 1.90201 14.108 1.01001 13 1.01001H3ZM8 4.01001C8.53043 4.01001 9.03914 4.22072 9.41421 4.5958C9.78929 4.97087 10 5.47958 10 6.01001C10 6.54044 9.78929 7.04915 9.41421 7.42422C9.03914 7.7993 8.53043 8.01001 8 8.01001C7.46957 8.01001 6.96086 7.7993 6.58579 7.42422C6.21071 7.04915 6 6.54044 6 6.01001C6 5.47958 6.21071 4.97087 6.58579 4.5958C6.96086 4.22072 7.46957 4.01001 8 4.01001ZM8 9.01001C12 9.00801 12 11.678 12 11.678V12.01H4V11.678C4 11.678 4 9.01201 8 9.01001Z" fill="#232323"/>
</g>
<defs>
<clipPath id="clip0_409_3731">
<rect width="16" height="16" fill="white"/>
</clipPath>
</defs>
</svg>
