<svg width="16" height="16" viewBox="0 0 16 16" fill="none" xmlns="http://www.w3.org/2000/svg">
<path d="M14.48 3.00807L12 3V2.5C12 1.99997 12 1.99997 11.5 2L10.5 1.99997C10 1.99997 10 1.99997 10 2.5V2.99998L6 3.00002C6 3.00002 6 3.00006 6 2.50003C6 2.00001 6 2.00001 5.5 2.00003L5 2.00001C5 2.00001 4.69526 2.00003 4.5 2.00002C4 2 4 2.00001 4 2.50002C4 3.00003 4 3.00002 4 3.00002L1.52 3.00783C1.23237 3.00783 1 3.24021 1 3.52783V5L15 5.00024V3.52807C15 3.24044 14.7676 3.00807 14.48 3.00807Z" fill="#232323"/>
<path d="M1.5 5.5H14.5V5.50853V5.51891V5.52938V5.53994V5.5506V5.56135V5.57219V5.58312V5.59415V5.60527V5.61648V5.62778V5.63917V5.65065V5.66222V5.67388V5.68563V5.69747V5.70939V5.72141V5.73351V5.7457V5.75798V5.77034V5.7828V5.79533V5.80796V5.82066V5.83346V5.84634V5.8593V5.87235V5.88548V5.89869V5.91199V5.92537V5.93884V5.95238V5.96601V5.97972V5.99351V6.00738V6.02133V6.03537V6.04948V6.06367V6.07794V6.09229V6.10672V6.12123V6.13581V6.15047V6.16521V6.18003V6.19492V6.20989V6.22493V6.24005V6.25525V6.27052V6.28587V6.30128V6.31678V6.33234V6.34798V6.3637V6.37948V6.39534V6.41127V6.42727V6.44334V6.45948V6.4757V6.49198V6.50834V6.52476V6.54125V6.55781V6.57444V6.59114V6.60791V6.62474V6.64164V6.65861V6.67564V6.69274V6.70991V6.72714V6.74444V6.7618V6.77923V6.79672V6.81427V6.83189V6.84957V6.86732V6.88512V6.90299V6.92092V6.93892V6.95697V6.97508V6.99326V7.0115V7.02979V7.04815V7.06656V7.08503V7.10356V7.12215V7.1408V7.15951V7.17827V7.19709V7.21596V7.2349V7.25388V7.27293V7.29203V7.31118V7.33039V7.34965V7.36897V7.38834V7.40776V7.42724V7.44676V7.46635V7.48598V7.50566V7.5254V7.54518V7.56502V7.58491V7.60484V7.62483V7.64487V7.66495V7.68508V7.70527V7.72549V7.74577V7.7661V7.78647V7.80688V7.82735V7.84786V7.86841V7.88901V7.90966V7.93035V7.95108V7.97186V7.99268V8.01355V8.03445V8.0554V8.0764V8.09743V8.11851V8.13962V8.16078V8.18198V8.20322V8.2245V8.24582V8.26717V8.28857V8.31V8.33148V8.35299V8.37454V8.39612V8.41775V8.4394V8.4611V8.48283V8.5046V8.5264V8.54824V8.57011V8.59201V8.61395V8.63593V8.65793V8.67997V8.70204V8.72415V8.74628V8.76845V8.79065V8.81288V8.83514V8.85743V8.87975V8.9021V8.92448V8.94689V8.96933V8.99179V9.01428V9.0368V9.05935V9.08192V9.10453V9.12715V9.14981V9.17248V9.19519V9.21792V9.24067V9.26345V9.28625V9.30907V9.33192V9.35479V9.37769V9.4006V9.42354V9.4465V9.46948V9.49248V9.5155V9.53855V9.56161V9.58469V9.60779V9.63091V9.65405V9.6772V9.70038V9.72357V9.74678V9.77001V9.79325V9.81651V9.83978V9.86307V9.88638V9.9097V9.93303V9.95638V9.97975V10.0031V10.0265V10.0499V10.0733V10.0968V10.1202V10.1436V10.1671V10.1906V10.2141V10.2376V10.2611V10.2846V10.3081V10.3316V10.3552V10.3787V10.4023V10.4258V10.4494V10.473V10.4966V10.5202V10.5438V10.5674V10.591V10.6146V10.6382V10.6618V10.6854V10.7091V10.7327V10.7563V10.78V10.8036V10.8273V10.8509V10.8745V10.8982V10.9218V10.9455V10.9691V10.9928V11.0164V11.0401V11.0637V11.0873V11.111V11.1346V11.1582V11.1819V11.2055V11.2291V11.2527V11.2764V11.3V11.3236V11.3472V11.3708V11.3943V11.4179V11.4415V11.4651V11.4886V11.5122V11.5357V11.5593V11.5828V11.6063V11.6298V11.6533V11.6768V11.7003V11.7237V11.7472V11.7706V11.7941V11.8175V11.8409V11.8643V11.8877V11.911V11.9344V11.9577V11.9811V12.0044V12.0277V12.0509V12.0742V12.0975V12.1207V12.1439V12.1671V12.1903V12.2134V12.2366V12.2597V12.2828V12.3059V12.329V12.352V12.3751V12.3981V12.4211V12.444V12.467V12.4899V12.5128V12.5357V12.5585V12.5814V12.6042V12.627V12.6497V12.6725V12.6952V12.7179V12.7405V12.7632V12.7858V12.8084V12.8309V12.8534V12.8759V12.8984V12.9209V12.9433V12.9657V12.988V13.0104V13.0327V13.0549V13.0772V13.0994V13.1216V13.1437V13.1658V13.1879V13.21V13.232V13.254V13.2759V13.2978V13.3197V13.3416V13.3634V13.3852V13.4069V13.4286V13.4503V13.4719V13.4935V13.5151V13.5366V13.5581V13.5795V13.601V13.6223V13.6437V13.6649V13.6862V13.7074V13.7286V13.7497V13.7708V13.7919V13.8129V13.8338V13.8548V13.8756V13.8965V13.9173V13.938V13.9587V13.9794V14C14.5 14.132 14.4992 14.2227 14.4888 14.3011C14.4789 14.3754 14.4641 14.4025 14.459 14.4101C14.459 14.4102 14.4513 14.4269 14.3969 14.4481C14.3334 14.4728 14.2128 14.5 14 14.5H13.9726H13.9452H13.9179H13.8906H13.8634H13.8362H13.8091H13.7821H13.7551H13.7282H13.7013H13.6745H13.6477H13.621H13.5943H13.5677H13.5411H13.5146H13.4881H13.4617H13.4354H13.4091H13.3828H13.3566H13.3304H13.3043H13.2783H13.2523H13.2263H13.2004H13.1745H13.1487H13.123H13.0973H13.0716H13.046H13.0204H12.9949H12.9694H12.944H12.9186H12.8933H12.868H12.8427H12.8175H12.7924H12.7673H12.7422H12.7172H12.6922H12.6673H12.6424H12.6176H12.5928H12.568H12.5433H12.5186H12.494H12.4694H12.4449H12.4204H12.3959H12.3715H12.3471H12.3228H12.2985H12.2742H12.25H12.2259H12.2017H12.1776H12.1536H12.1296H12.1056H12.0816H12.0577H12.0339H12.0101H11.9863H11.9625H11.9388H11.9151H11.8915H11.8679H11.8443H11.8208H11.7973H11.7738H11.7504H11.727H11.7037H11.6804H11.6571H11.6338H11.6106H11.5874H11.5643H11.5412H11.5181H11.495H11.472H11.449H11.4261H11.4031H11.3803H11.3574H11.3346H11.3118H11.289H11.2663H11.2436H11.2209H11.1982H11.1756H11.153H11.1305H11.1079H11.0854H11.0629H11.0405H11.0181H10.9957H10.9733H10.951H10.9287H10.9064H10.8841H10.8619H10.8397H10.8175H10.7954H10.7732H10.7511H10.729H10.707H10.6849H10.6629H10.641H10.619H10.597H10.5751H10.5532H10.5314H10.5095H10.4877H10.4659H10.4441H10.4223H10.4006H10.3789H10.3572H10.3355H10.3138H10.2922H10.2706H10.249H10.2274H10.2058H10.1843H10.1628H10.1413H10.1198H10.0983H10.0769H10.0554H10.034H10.0126H9.99122H9.96985H9.9485H9.92716H9.90584H9.88454H9.86325H9.84197H9.82071H9.79946H9.77823H9.75701H9.73581H9.71461H9.69344H9.67227H9.65112H9.62998H9.60885H9.58774H9.56663H9.54554H9.52446H9.50339H9.48233H9.46129H9.44025H9.41922H9.3982H9.3772H9.3562H9.33521H9.31423H9.29326H9.2723H9.25134H9.2304H9.20946H9.18853H9.1676H9.14669H9.12578H9.10488H9.08398H9.06309H9.04221H9.02133H9.00045H8.97959H8.95872H8.93787H8.91701H8.89616H8.87532H8.85448H8.83364H8.8128H8.79197H8.77114H8.75032H8.7295H8.70867H8.68785H8.66704H8.64622H8.6254H8.60459H8.58378H8.56296H8.54215H8.52134H8.50053H8.47971H8.4589H8.43808H8.41727H8.39645H8.37563H8.35481H8.33399H8.31316H8.29233H8.2715H8.25067H8.22983H8.20899H8.18815H8.1673H8.14645H8.12559H8.10473H8.08386H8.06299H8.04211H8.02123H8.00034H7.97944H7.95854H7.93764H7.91672H7.8958H7.87487H7.85393H7.83299H7.81204H7.79108H7.77011H7.74913H7.72814H7.70714H7.68614H7.66512H7.6441H7.62306H7.60202H7.58096H7.55989H7.53882H7.51773H7.49663H7.47551H7.45439H7.43325H7.4121H7.39094H7.36976H7.34857H7.32737H7.30616H7.28493H7.26368H7.24242H7.22115H7.19986H7.17856H7.15724H7.13591H7.11456H7.09319H7.07181H7.05041H7.029H7.00756H6.98611H6.96465H6.94316H6.92166H6.90014H6.8786H6.85704H6.83547H6.81387H6.79225H6.77062H6.74896H6.72729H6.70559H6.68388H6.66214H6.64038H6.61861H6.59681H6.57498H6.55314H6.53127H6.50939H6.48747H6.46554H6.44358H6.4216H6.3996H6.37757H6.35552H6.33344H6.31134H6.28921H6.26706H6.24489H6.22268H6.20046H6.1782H6.15592H6.13362H6.11128H6.08892H6.06654H6.04412H6.02168H5.99921H5.97671H5.95419H5.93163H5.90905H5.88643H5.86379H5.84112H5.81842H5.79569H5.77292H5.75013H5.72731H5.70446H5.68157H5.65865H5.63571H5.61273H5.58971H5.56667H5.54359H5.52048H5.49734H5.47416H5.45095H5.42771H5.40443H5.38112H5.35777H5.33439H5.31097H5.28752H5.26404H5.24051H5.21696H5.19336H5.16973H5.14606H5.12236H5.09862H5.07484H5.05102H5.02717H5.00327H4.97934H4.95537H4.93137H4.90732H4.88323H4.85911H4.83494H4.81074H4.78649H4.7622H4.73788H4.71351H4.6891H4.66465H4.64016H4.61563H4.59105H4.56643H4.54177H4.51707H4.49233H4.46754H4.4427H4.41783H4.39291H4.36794H4.34293H4.31788H4.29278H4.26764H4.24245H4.21721H4.19193H4.16661H4.14123H4.11581H4.09035H4.06483H4.03927H4.01366H3.98801H3.96231H3.93655H3.91075H3.8849H3.85901H3.83306H3.80706H3.78102H3.75492H3.72877H3.70258H3.67633H3.65003H3.62368H3.59728H3.57083H3.54433H3.51777H3.49116H3.4645H3.43779H3.41102H3.3842H3.35733H3.33041H3.30343H3.27639H3.2493H3.22216H3.19496H3.16771H3.1404H3.11304H3.08562H3.05814H3.03061H3.00302H2.97538H2.94767H2.91991H2.8921H2.86422H2.83629H2.8083H2.78025H2.75214H2.72398H2.69575H2.66747H2.63912H2.61072H2.58225H2.55373H2.52515H2.4965H2.46779H2.43902H2.4102H2.3813H2.35235H2.32334H2.29426H2.26512H2.23592H2.20665H2.17732H2.14793H2.11847H2.08895H2.05936H2.02971H2C1.78228 14.5 1.658 14.4748 1.59152 14.4509C1.56039 14.4396 1.54584 14.4301 1.54087 14.4264C1.53828 14.4245 1.53722 14.4234 1.53705 14.4232L1.53653 14.4226C1.53593 14.4217 1.52143 14.4005 1.51141 14.3238C1.5008 14.2427 1.5 14.1456 1.5 14V8.18198V5.91199V5.5Z" stroke="#232323"/>
<path d="M4 8.5C4 8.22386 4.22386 8 4.5 8H6.5C6.77614 8 7 8.22386 7 8.5V10.5C7 10.7761 6.77614 11 6.5 11H4.5C4.22386 11 4 10.7761 4 10.5V8.5Z" fill="#232323"/>
</svg>
