<svg width="16" height="16" viewBox="0 0 16 16" fill="none" xmlns="http://www.w3.org/2000/svg">
<g clip-path="url(#clip0_409_3718)">
<path d="M6.99776 1.0188C6.73255 1.0188 6.47819 1.12403 6.29065 1.31134C6.10312 1.49866 5.99776 1.75271 5.99776 2.01761V7.01168H3.65576L7.98776 13.3112L12.3708 7.01168H9.99776V2.01761C9.99776 1.75271 9.8924 1.49866 9.70487 1.31134C9.51733 1.12403 9.26298 1.0188 8.99776 1.0188H6.99776Z" fill="#232323"/>
<path d="M1.99805 14.0034C1.73283 14.0034 1.47848 14.1086 1.29094 14.2959C1.1034 14.4832 0.998047 14.7373 0.998047 15.0022C0.998047 15.2671 1.1034 15.5211 1.29094 15.7084C1.47848 15.8958 1.73283 16.001 1.99805 16.001H13.998C14.2633 16.001 14.5176 15.8958 14.7052 15.7084C14.8927 15.5211 14.998 15.2671 14.998 15.0022C14.998 14.7373 14.8927 14.4832 14.7052 14.2959C14.5176 14.1086 14.2633 14.0034 13.998 14.0034H1.99805Z" fill="#232323"/>
</g>
<defs>
<clipPath id="clip0_409_3718">
<rect width="16" height="16" fill="white"/>
</clipPath>
</defs>
</svg>
