<svg width="16" height="16" viewBox="0 0 16 16" fill="none" xmlns="http://www.w3.org/2000/svg">
<g clip-path="url(#clip0_409_3723)">
<path d="M2 4C1.5 4 1 4.5 1 5V9C1 9.5 1.5 10 2 10H3V8H13V10H14C14.5 10 15 9.5 15 9V5C15 4.5 14.5 4 14 4H2ZM4 5.006C4.554 5.006 5 5.452 5 6.006C5 6.56 4.554 7.006 4 7.006C3.446 7.006 3 6.56 3 6.006C3 5.452 3.446 5.006 4 5.006Z" fill="#232323"/>
<path d="M4 1V3H12V1H4Z" fill="#232323"/>
<path d="M4 9V14H12V9H4Z" fill="#232323"/>
</g>
<defs>
<clipPath id="clip0_409_3723">
<rect width="16" height="16" fill="white"/>
</clipPath>
</defs>
</svg>
