<svg width="16" height="16" viewBox="0 0 16 16" fill="none" xmlns="http://www.w3.org/2000/svg">
<path fill-rule="evenodd" clip-rule="evenodd" d="M8 3.00305C6.45 3.01805 4.888 3.37305 3.537 4.13805C2.999 4.48805 2.352 4.94105 1.865 5.39805C1.1 6.14805 0.443 7.02405 0 8.00305C1.215 10.6831 3.886 12.6471 6.824 12.9371C8.752 13.1551 10.769 12.8221 12.463 11.8681C13.001 11.5181 13.648 11.0651 14.135 10.6081C14.901 9.85805 15.557 8.98205 16 8.00305C14.785 5.32305 12.114 3.35905 9.176 3.06905C8.786 3.02405 8.393 3.00305 8 3.00305ZM8 5.00305C9.607 4.96705 11.03 6.40505 11 8.00305C11.051 9.76905 9.291 11.2931 7.55 10.9631C5.793 10.7581 4.559 8.78605 5.137 7.11605C5.506 5.88605 6.713 4.98805 8 5.00305ZM8 7.00305C7.73478 7.00305 7.48043 7.10841 7.29289 7.29595C7.10536 7.48348 7 7.73784 7 8.00305C7 8.26827 7.10536 8.52262 7.29289 8.71016C7.48043 8.89769 7.73478 9.00305 8 9.00305C8.26522 9.00305 8.51957 8.89769 8.70711 8.71016C8.89464 8.52262 9 8.26827 9 8.00305C9 7.73784 8.89464 7.48348 8.70711 7.29595C8.51957 7.10841 8.26522 7.00305 8 7.00305Z" fill="#232323"/>
</svg>
