<svg width="16" height="16" viewBox="0 0 16 16" fill="none" xmlns="http://www.w3.org/2000/svg">
<g clip-path="url(#clip0_409_3724)">
<path d="M4 1V3H12V1H4ZM2 4C1.5 4 1 4.5 1 5V9C1 9.5 1.5 10 2 10H3V8H8.125C8.8039 7.34242 9.71086 6.97298 10.656 6.969C12.438 6.969 13.946 8.249 14.281 9.938C14.674 9.8 15 9.407 15 9V5C15 4.5 14.5 4 14 4H2ZM4 5.006C4.26522 5.006 4.51957 5.11136 4.70711 5.29889C4.89464 5.48643 5 5.74078 5 6.006C5 6.27122 4.89464 6.52557 4.70711 6.71311C4.51957 6.90064 4.26522 7.006 4 7.006C3.73478 7.006 3.48043 6.90064 3.29289 6.71311C3.10536 6.52557 3 6.27122 3 6.006C3 5.74078 3.10536 5.48643 3.29289 5.29889C3.48043 5.11136 3.73478 5.006 4 5.006ZM4 9V14H9.094C8.4599 13.7005 7.92369 13.2274 7.54758 12.6355C7.17146 12.0436 6.97084 11.3573 6.969 10.656C6.969 10.061 7.12 9.5 7.375 9H4Z" fill="#232323"/>
<path d="M10.656 7.93994C9.16001 7.93994 7.93701 9.16294 7.93701 10.6589C7.93701 12.1549 9.16001 13.3779 10.656 13.3779C11.143 13.3779 11.603 13.2289 12 13.0029C12.0385 13.0844 12.0913 13.1582 12.156 13.2209L14 15.0339C14.141 15.1748 14.3321 15.2538 14.5314 15.2538C14.7306 15.2537 14.9217 15.1744 15.0625 15.0334C15.2033 14.8925 15.2824 14.7013 15.2823 14.5021C15.2822 14.3028 15.203 14.1118 15.062 13.9709L13.219 12.1589C13.1557 12.0941 13.0812 12.0412 12.999 12.0029C13.226 11.6059 13.375 11.1459 13.375 10.6589C13.3732 9.93838 13.0861 9.24785 12.5766 8.73834C12.0671 8.22883 11.3766 7.94179 10.656 7.93994ZM10.656 8.93994C11.611 8.93994 12.375 9.70394 12.375 10.6589C12.375 11.6139 11.611 12.3779 10.656 12.3779C9.70101 12.3779 8.93701 11.6139 8.93701 10.6579C8.93701 9.70193 9.70101 8.93994 10.656 8.93994Z" fill="#232323"/>
</g>
<defs>
<clipPath id="clip0_409_3724">
<rect width="16" height="16" fill="white"/>
</clipPath>
</defs>
</svg>
