<svg width="16" height="16" viewBox="0 0 16 16" fill="none" xmlns="http://www.w3.org/2000/svg">
<g clip-path="url(#clip0_409_3725)">
<path d="M1 5.73303C0.734784 5.73303 0.48043 5.83839 0.292893 6.02593C0.105357 6.21346 0 6.46782 0 6.73303L0 11.007C0 11.2722 0.105357 11.5266 0.292893 11.7141C0.48043 11.9017 0.734784 12.007 1 12.007L12.02 11.997L1.446 5.83903H1.444C1.30645 5.77009 1.15485 5.73382 1.001 5.73303H1ZM2 8.00703L5.25 10.007H2V8.00703Z" fill="#232323"/>
<path d="M3 1.00305C3 1.00305 2 1.00305 2 2.00305V4.75305L4 5.91005V3.00305H12V13.0031H2V14.0031C2 15.0031 3 15.0031 3 15.0031H13C13 15.0031 14 15.0031 14 14.0031V2.00305C14 1.00305 13 1.00305 13 1.00305H3Z" fill="#232323"/>
</g>
<defs>
<clipPath id="clip0_409_3725">
<rect width="16" height="16" fill="white"/>
</clipPath>
</defs>
</svg>
