<svg width="16" height="16" viewBox="0 0 16 16" fill="none" xmlns="http://www.w3.org/2000/svg">
<g clip-path="url(#clip0_409_3719)">
<path d="M6.99805 1.0188C6.73283 1.0188 6.47848 1.12403 6.29094 1.31134C6.1034 1.49866 5.99805 1.75271 5.99805 2.01761V7.01168H3.65605L7.98805 13.3112L12.37 7.01168H9.99805V2.01761C9.99805 1.75271 9.89269 1.49866 9.70515 1.31134C9.51762 1.12403 9.26326 1.0188 8.99805 1.0188H6.99805ZM11.998 11.0069C11.7328 11.0069 11.4785 11.1122 11.2909 11.2995C11.1034 11.4868 10.998 11.7409 10.998 12.0058C10.998 12.2707 11.1034 12.5247 11.2909 12.712C11.4785 12.8993 11.7328 13.0046 11.998 13.0046C12.2633 13.0046 12.5176 12.8993 12.7052 12.712C12.8927 12.5247 12.998 12.2707 12.998 12.0058C12.998 11.7409 12.8927 11.4868 12.7052 11.2995C12.5176 11.1122 12.2633 11.0069 11.998 11.0069ZM14.998 11.0069C14.7328 11.0069 14.4785 11.1122 14.2909 11.2995C14.1034 11.4868 13.998 11.7409 13.998 12.0058C13.998 12.2707 14.1034 12.5247 14.2909 12.712C14.4785 12.8993 14.7328 13.0046 14.998 13.0046C15.2633 13.0046 15.5176 12.8993 15.7052 12.712C15.8927 12.5247 15.998 12.2707 15.998 12.0058C15.998 11.7409 15.8927 11.4868 15.7052 11.2995C15.5176 11.1122 15.2633 11.0069 14.998 11.0069ZM1.99805 14.0034C1.73283 14.0034 1.47848 14.1086 1.29094 14.2959C1.1034 14.4832 0.998047 14.7373 0.998047 15.0022C0.998047 15.2671 1.1034 15.5211 1.29094 15.7085C1.47848 15.8958 1.73283 16.001 1.99805 16.001H13.998C14.2633 16.001 14.5176 15.8958 14.7052 15.7085C14.8927 15.5211 14.998 15.2671 14.998 15.0022C14.998 14.7373 14.8927 14.4832 14.7052 14.2959C14.5176 14.1086 14.2633 14.0034 13.998 14.0034H1.99805Z" fill="#232323"/>
</g>
<defs>
<clipPath id="clip0_409_3719">
<rect width="16" height="16" fill="white"/>
</clipPath>
</defs>
</svg>
