<svg width="16" height="16" viewBox="0 0 16 16" fill="none" xmlns="http://www.w3.org/2000/svg">
<g clip-path="url(#clip0_409_3717)">
<path d="M3.97993 1.00305C2.95493 1.00305 2.11993 1.77805 2.00293 2.77305V14.2331C2.11893 15.2281 2.95393 16.0031 3.97993 16.0031H11.9799C13.0699 16.0031 13.9539 15.1291 13.9759 14.0441C13.9859 12.9501 13.9809 8.62105 13.9759 5.91405C13.9667 5.41576 13.7716 4.9389 13.4289 4.57705L10.4599 1.60805C10.2736 1.41661 10.0508 1.26444 9.80466 1.16053C9.55853 1.05662 9.29409 1.00307 9.02693 1.00305H3.97993ZM5.00293 5.00305L12.0029 8.50305L5.00293 12.0031V9.00305L9.50293 8.50305L5.00293 8.00305V5.00305Z" fill="#232323"/>
</g>
<defs>
<clipPath id="clip0_409_3717">
<rect width="16" height="16.003" fill="white"/>
</clipPath>
</defs>
</svg>
