<svg width="16" height="16" viewBox="0 0 16 16" fill="none" xmlns="http://www.w3.org/2000/svg">
<g clip-path="url(#clip0_409_3728)">
<path d="M3.96 1.00305C3.43706 1.013 2.93887 1.22761 2.5724 1.60081C2.20594 1.974 2.00043 2.47601 2 2.99905V13.9991C2 14.5295 2.21071 15.0382 2.58579 15.4133C2.96086 15.7883 3.46957 15.9991 4 15.9991H12C13.09 15.9991 13.973 15.1251 13.995 14.0401C14.005 12.9461 14 8.61705 13.995 5.91005C13.9858 5.41176 13.7907 4.9349 13.448 4.57305L10.48 1.60505C10.1119 1.22803 9.60983 1.01167 9.083 1.00305H3.96ZM6.995 5.00305H8.995V8.00305H11.995V10.0031H8.995V13.0031H6.995V10.0031H3.995V8.00305H6.995V5.00305Z" fill="#232323"/>
</g>
<defs>
<clipPath id="clip0_409_3728">
<rect width="16" height="16" fill="white"/>
</clipPath>
</defs>
</svg>
