<svg width="16" height="16" viewBox="0 0 16 16" fill="none" xmlns="http://www.w3.org/2000/svg">
<g clip-path="url(#clip0_409_3721)">
<path d="M3 1.00698C3 1.00698 2 1.00698 2 2.00698V14.007C2 15.007 3 15.007 3 15.007H13C13 15.007 14 15.007 14 14.007V10.007C14 7.00698 11 7.00698 11 7.00698L10 7.00298V5.00298L5.5 8.00298L10 11.003V9.00298L11 9.00698C11 9.00698 12 9.00698 12 10.007V13.007H4V3.00998H12V4.97398C11.9991 4.9853 11.9985 4.99664 11.998 5.00798C11.998 5.27373 12.1036 5.52859 12.2915 5.7165C12.4794 5.90441 12.7343 6.00998 13 6.00998C13.2657 6.00998 13.5206 5.90441 13.7085 5.7165C13.8964 5.52859 14.002 5.27373 14.002 5.00798C14.0021 4.98463 14.0015 4.96128 14 4.93798V2.00598C14 1.00598 13 1.00598 13 1.00598L3 1.00698Z" fill="#232323"/>
</g>
<defs>
<clipPath id="clip0_409_3721">
<rect width="16" height="16" fill="white"/>
</clipPath>
</defs>
</svg>
