<svg width="16" height="16" viewBox="0 0 16 16" fill="none" xmlns="http://www.w3.org/2000/svg">
<path d="M8.00019 0.719971L3.61719 7.02697H5.99219L6.00019 12C6.00019 12.2652 6.10554 12.5195 6.29308 12.7071C6.48062 12.8946 6.73497 13 7.00019 13H9.00019C9.2654 13 9.51976 12.8946 9.70729 12.7071C9.89483 12.5195 10.0002 12.2652 10.0002 12L9.99019 7.02597H12.3322L8.00019 0.719971Z" fill="#232323"/>
<path d="M2 14C1.73478 14 1.48043 14.1054 1.29289 14.2929C1.10536 14.4804 1 14.7348 1 15C1 15.2652 1.10536 15.5196 1.29289 15.7071C1.48043 15.8946 1.73478 16 2 16H14C14.2652 16 14.5196 15.8946 14.7071 15.7071C14.8946 15.5196 15 15.2652 15 15C15 14.7348 14.8946 14.4804 14.7071 14.2929C14.5196 14.1054 14.2652 14 14 14H2Z" fill="#232323"/>
</svg>
