<svg width="16" height="16" viewBox="0 0 16 16" fill="none" xmlns="http://www.w3.org/2000/svg">
<g clip-path="url(#clip0_409_3710)">
<path d="M6.5 1.003C3.471 1.003 1 3.478 1 6.503C1 7.565 1.28599 8.56601 1.81299 9.40901L3.28101 7.94002C3.08822 7.48583 2.9925 6.99635 3 6.503C3 4.558 4.553 3.003 6.5 3.003C6.98557 3.00541 7.465 3.11181 7.90601 3.31502L8.65601 2.56502L8.75 2.472L9.375 1.81502C8.51092 1.28204 7.51523 1.00081 6.5 1.003ZM11.125 9.69099L9.68701 11.097L13.412 14.821L13.416 14.817C13.5099 14.9089 13.621 14.9813 13.7429 15.0303C13.8648 15.0792 13.9951 15.1037 14.1265 15.1022C14.2578 15.1008 14.3876 15.0735 14.5084 15.0219C14.6292 14.9703 14.7386 14.8954 14.8305 14.8015C14.9224 14.7076 14.9948 14.5966 15.0438 14.4747C15.0927 14.3528 15.1171 14.2224 15.1157 14.091C15.1143 13.9597 15.087 13.8299 15.0354 13.7091C14.9838 13.5883 14.9089 13.4789 14.815 13.387L11.125 9.69099Z" fill="#232323"/>
<path d="M2 11.33V14.003H4.673L11.423 7.25197L8.751 4.57897L2 11.33ZM13.788 4.89597C13.8551 4.83007 13.9083 4.75148 13.9447 4.66477C13.981 4.57807 13.9998 4.48499 13.9998 4.39097C13.9998 4.29695 13.981 4.20387 13.9447 4.11717C13.9083 4.03046 13.8551 3.95187 13.788 3.88597L12.118 2.21497C12.0521 2.14776 11.9734 2.09436 11.8866 2.05791C11.7998 2.02146 11.7066 2.00269 11.6125 2.00269C11.5184 2.00269 11.4252 2.02146 11.3384 2.05791C11.2516 2.09436 11.1729 2.14776 11.107 2.21497L9.71 3.61997L12.383 6.29197L13.788 4.89597Z" fill="#232323"/>
</g>
<defs>
<clipPath id="clip0_409_3710">
<rect width="16" height="16" fill="white"/>
</clipPath>
</defs>
</svg>
