<svg width="16" height="16" viewBox="0 0 16 16" fill="none" xmlns="http://www.w3.org/2000/svg">
<g clip-path="url(#clip0_409_3708)">
<path d="M8 0.002995C7.46957 0.002995 6.96086 0.213709 6.58579 0.588781C6.21071 0.963854 6 1.47256 6 2.003H3C2 2.003 2 3.003 2 3.003V14.003C2 15.003 3 15.003 3 15.003H13C13 15.003 14 15.003 14 14.003V3.003C14 2.003 13 2.003 13 2.003H10C10 1.865 9.995 1.72699 9.969 1.59699C9.87388 1.14553 9.62619 0.740602 9.26759 0.450301C8.909 0.160001 8.46137 0.00204357 8 0.002995ZM8 1.003C8.414 1.003 8.754 1.269 8.906 1.628C8.96298 1.74513 8.99499 1.87283 9 2.003C9 2.20078 8.94135 2.39412 8.83147 2.55857C8.72159 2.72301 8.56541 2.85119 8.38268 2.92687C8.19996 3.00256 7.99889 3.02237 7.80491 2.98378C7.61093 2.9452 7.43275 2.84995 7.29289 2.7101C7.15304 2.57025 7.0578 2.39207 7.01921 2.19809C6.98063 2.0041 7.00043 1.80304 7.07612 1.62031C7.15181 1.43759 7.27998 1.28141 7.44443 1.17153C7.60888 1.06164 7.80222 1.003 8 1.003ZM4 4.003H5V5.003H11V4.003H12V13.003H4V4.003Z" fill="#232323"/>
</g>
<defs>
<clipPath id="clip0_409_3708">
<rect width="16" height="16" fill="white"/>
</clipPath>
</defs>
</svg>
