<svg width="16" height="16" viewBox="0 0 16 16" fill="none" xmlns="http://www.w3.org/2000/svg">
<path d="M13.4198 14.83L13.4238 14.826C13.5646 14.9629 13.7426 15.0553 13.9356 15.0917C14.1286 15.128 14.3281 15.1068 14.5091 15.0305C14.6901 14.9543 14.8446 14.8264 14.9534 14.6629C15.0622 14.4994 15.1204 14.3074 15.1208 14.111C15.1548 13.813 14.9678 13.534 14.8258 13.392L11.7248 10.291L10.3218 11.721L13.4198 14.83Z" fill="#232323"/>
<path d="M6.5 1.00299C5.04131 1.00299 3.64236 1.58245 2.61091 2.6139C1.57946 3.64535 1 5.0443 1 6.50299C1 7.96168 1.57946 9.36063 2.61091 10.3921C3.64236 11.4235 5.04131 12.003 6.5 12.003C7.95869 12.003 9.35764 11.4235 10.3891 10.3921C11.4205 9.36063 12 7.96168 12 6.50299C12 5.0443 11.4205 3.64535 10.3891 2.6139C9.35764 1.58245 7.95869 1.00299 6.5 1.00299ZM6.5 3.00299C7.42826 3.00299 8.3185 3.37174 8.97487 4.02812C9.63125 4.68449 10 5.57473 10 6.50299C10 7.43125 9.63125 8.32149 8.97487 8.97786C8.3185 9.63424 7.42826 10.003 6.5 10.003C5.57174 10.003 4.6815 9.63424 4.02513 8.97786C3.36875 8.32149 3 7.43125 3 6.50299C3 5.57473 3.36875 4.68449 4.02513 4.02812C4.6815 3.37174 5.57174 3.00299 6.5 3.00299Z" fill="#232323"/>
</svg>
