<svg width="16" height="16" viewBox="0 0 16 16" fill="none" xmlns="http://www.w3.org/2000/svg">
<g clip-path="url(#clip0_409_3707)">
<path d="M9 2V4H6C3.247 4 1 6.247 1 9C1 11.753 3.247 13.997 6 14L10 14.004C10.2652 14.004 10.5196 13.8987 10.7071 13.7111C10.8946 13.5236 11 13.2692 11 13.004C11 12.7388 10.8946 12.4844 10.7071 12.2969C10.5196 12.1094 10.2652 12.004 10 12.004L6 12C4.32 12 3 10.68 3 9C3 7.32 4.32 6 6 6H9V8L14 5L9 2Z" fill="#232323"/>
</g>
<defs>
<clipPath id="clip0_409_3707">
<rect width="16" height="16" fill="white"/>
</clipPath>
</defs>
</svg>
