<svg width="16" height="16" viewBox="0 0 16 16" fill="none" xmlns="http://www.w3.org/2000/svg">
<g clip-path="url(#clip0_409_3712)">
<path d="M4.5 2.00696C3.83696 2.00696 3.20108 2.27035 2.73223 2.73919C2.26339 3.20803 2 3.84392 2 4.50696C2 5.17 2.26339 5.80588 2.73223 6.27472C3.20108 6.74357 3.83696 7.00696 4.5 7.00696C4.946 7.00696 5.356 6.86796 5.719 6.66296L7.688 8.50696L5.718 10.351C5.34871 10.1326 4.92897 10.014 4.5 10.007C4.00555 10.007 3.5222 10.1536 3.11108 10.4283C2.69995 10.703 2.37952 11.0934 2.1903 11.5502C2.00108 12.0071 1.95157 12.5097 2.04804 12.9947C2.1445 13.4796 2.3826 13.9251 2.73223 14.2747C3.08187 14.6244 3.52732 14.8625 4.01228 14.9589C4.49723 15.0554 4.99989 15.0059 5.45671 14.8167C5.91352 14.6274 6.30397 14.307 6.57867 13.8959C6.85338 13.4848 7 13.0014 7 12.507C7 12.277 6.964 12.062 6.906 11.851L9.031 9.78796L13.5 14.008H15V13.008L6.906 5.16196C6.96669 4.94885 6.99831 4.72853 7 4.50696C7 4.17865 6.93534 3.85356 6.8097 3.55025C6.68406 3.24694 6.49991 2.97134 6.26777 2.73919C6.03562 2.50704 5.76002 2.3229 5.45671 2.19726C5.1534 2.07162 4.82831 2.00696 4.5 2.00696ZM4.5 3.50696C4.63132 3.50696 4.76136 3.53282 4.88268 3.58308C5.00401 3.63333 5.11425 3.70699 5.20711 3.79985C5.29997 3.89271 5.37363 4.00295 5.42388 4.12427C5.47414 4.2456 5.5 4.37564 5.5 4.50696C5.5 4.63828 5.47414 4.76832 5.42388 4.88964C5.37363 5.01097 5.29997 5.12121 5.20711 5.21406C5.11425 5.30692 5.00401 5.38058 4.88268 5.43084C4.76136 5.48109 4.63132 5.50696 4.5 5.50696C4.23478 5.50696 3.98043 5.4016 3.79289 5.21406C3.60536 5.02653 3.5 4.77217 3.5 4.50696C3.5 4.24174 3.60536 3.98739 3.79289 3.79985C3.98043 3.61231 4.23478 3.50696 4.5 3.50696ZM13.5 3.00696L9.562 6.72596L10.875 8.00696L15 4.00696V3.00696H13.5ZM4.5 11.507C4.76522 11.507 5.01957 11.6123 5.20711 11.7999C5.39464 11.9874 5.5 12.2417 5.5 12.507C5.5 12.7722 5.39464 13.0265 5.20711 13.2141C5.01957 13.4016 4.76522 13.507 4.5 13.507C4.23478 13.507 3.98043 13.4016 3.79289 13.2141C3.60536 13.0265 3.5 12.7722 3.5 12.507C3.5 12.2417 3.60536 11.9874 3.79289 11.7999C3.98043 11.6123 4.23478 11.507 4.5 11.507Z" fill="#232323"/>
</g>
<defs>
<clipPath id="clip0_409_3712">
<rect width="16" height="16" fill="white"/>
</clipPath>
</defs>
</svg>
