<svg width="16" height="16" viewBox="0 0 16 16" fill="none" xmlns="http://www.w3.org/2000/svg">
<path d="M11 2.00299L16 8.00299L11 14.003H0V2.00299H11ZM9 5.00299H8C7.723 5.00299 7.474 5.11499 7.293 5.29599L6 6.58899L4.707 5.29599C4.6144 5.20281 4.50423 5.12894 4.38287 5.07864C4.26151 5.02835 4.13137 5.00264 4 5.00299H3V6.00299C2.99981 6.13433 3.02561 6.26442 3.0759 6.38576C3.12618 6.50709 3.19996 6.61729 3.293 6.70999L4.586 8.00299L3.293 9.29599C3.113 9.47599 3 9.72599 3 10.003V11.003H4C4.13134 11.0032 4.26141 10.9774 4.38275 10.9271C4.50409 10.8768 4.6143 10.803 4.707 10.71L6 9.41699L7.293 10.71C7.3857 10.803 7.49591 10.8768 7.61725 10.9271C7.73859 10.9774 7.86866 11.0032 8 11.003H9V10.003C9 9.72599 8.888 9.47599 8.707 9.29599L7.414 8.00299L8.707 6.70999C8.80004 6.61729 8.87382 6.50709 8.9241 6.38576C8.97439 6.26442 9.00019 6.13433 9 6.00299V5.00299Z" fill="#232323"/>
</svg>
