<svg width="16" height="16" viewBox="0 0 16 16" fill="none" xmlns="http://www.w3.org/2000/svg">
<g clip-path="url(#clip0_409_3702)">
<path d="M7 2L2 5L7 8V6H10C11.68 6 13 7.32 13 9C13 10.68 11.68 12 10 12L6 12.004C5.73478 12.004 5.48043 12.1094 5.29289 12.2969C5.10536 12.4844 5 12.7388 5 13.004C5 13.2692 5.10536 13.5236 5.29289 13.7111C5.48043 13.8987 5.73478 14.004 6 14.004L10 14C12.753 13.997 15 11.753 15 9C15 6.247 12.753 4 10 4H7V2Z" fill="#232323"/>
</g>
<defs>
<clipPath id="clip0_409_3702">
<rect width="16" height="16" fill="white"/>
</clipPath>
</defs>
</svg>
