<svg width="16" height="16" viewBox="0 0 16 16" fill="none" xmlns="http://www.w3.org/2000/svg">
<g clip-path="url(#clip0_409_3713)">
<path d="M3 1.00305C3 1.00305 2 1.00305 2 2.00305V11.0031C2 11.0031 2 12.0031 3 12.0031H4V3.00305H12V2.00305C12 1.00305 11 1.00305 11 1.00305H3ZM6 4.00305C6 4.00305 5 4.00305 5 5.00305V15.0031C5 16.0031 6 16.0031 6 16.0031H14C14 16.0031 15 16.0031 15 15.0001V5.00305C15 4.00305 14 4.00305 14 4.00305H6ZM7 6.00305H13V14.0031H7V6.00305Z" fill="#232323"/>
</g>
<defs>
<clipPath id="clip0_409_3713">
<rect width="16" height="16.003" fill="white"/>
</clipPath>
</defs>
</svg>
