<svg width="16" height="16" viewBox="0 0 16 16" fill="none" xmlns="http://www.w3.org/2000/svg">
<g clip-path="url(#clip0_409_3691)">
<path d="M13.999 1.00299L1.99902 1.00699C1.73381 1.00699 1.47945 1.11235 1.29192 1.29988C1.10438 1.48742 0.999023 1.74177 0.999023 2.00699C0.999023 2.27221 1.10438 2.52656 1.29192 2.7141C1.47945 2.90163 1.73381 3.00699 1.99902 3.00699L13.933 3.00299C13.955 3.00505 13.977 3.00639 13.999 3.00699C14.2642 3.00699 14.5186 2.90163 14.7061 2.7141C14.8937 2.52656 14.999 2.27221 14.999 2.00699C14.999 1.74177 14.8937 1.48742 14.7061 1.29988C14.5186 1.11235 14.2642 1.00699 13.999 1.00699V1.00299ZM1.99902 5.00699C1.73381 5.00699 1.47945 5.11235 1.29192 5.29988C1.10438 5.48742 0.999023 5.74177 0.999023 6.00699C0.999023 6.27221 1.10438 6.52656 1.29192 6.7141C1.47945 6.90163 1.73381 7.00699 1.99902 7.00699V7.01099L7.99902 7.00699C8.26424 7.00699 8.51859 6.90163 8.70613 6.7141C8.89367 6.52656 8.99902 6.27221 8.99902 6.00699C8.99902 5.74177 8.89367 5.48742 8.70613 5.29988C8.51859 5.11235 8.26424 5.00699 7.99902 5.00699L2.06502 5.01099C2.04341 5.00895 2.02173 5.00762 2.00002 5.00699H1.99902ZM1.99902 9.00699C1.73381 9.00699 1.47945 9.11235 1.29192 9.29988C1.10438 9.48742 0.999023 9.74177 0.999023 10.007C0.999023 10.2722 1.10438 10.5266 1.29192 10.7141C1.47945 10.9016 1.73381 11.007 1.99902 11.007V11.011L7.99902 11.007C8.26424 11.007 8.51859 10.9016 8.70613 10.7141C8.89367 10.5266 8.99902 10.2722 8.99902 10.007C8.99902 9.74177 8.89367 9.48742 8.70613 9.29988C8.51859 9.11235 8.26424 9.00699 7.99902 9.00699L2.06502 9.01099C2.04341 9.00895 2.02173 9.00762 2.00002 9.00699H1.99902ZM13.999 13.003L1.99902 13.007C1.73381 13.007 1.47945 13.1123 1.29192 13.2999C1.10438 13.4874 0.999023 13.7418 0.999023 14.007C0.999023 14.2722 1.10438 14.5266 1.29192 14.7141C1.47945 14.9016 1.73381 15.007 1.99902 15.007L13.933 15.003C13.955 15.0051 13.977 15.0064 13.999 15.007C14.2642 15.007 14.5186 14.9016 14.7061 14.7141C14.8937 14.5266 14.999 14.2722 14.999 14.007C14.999 13.7418 14.8937 13.4874 14.7061 13.2999C14.5186 13.1123 14.2642 13.007 13.999 13.007V13.003Z" fill="#232323"/>
</g>
<defs>
<clipPath id="clip0_409_3691">
<rect width="16" height="16" fill="white"/>
</clipPath>
</defs>
</svg>
