<svg width="16" height="16" viewBox="0 0 16 16" fill="none" xmlns="http://www.w3.org/2000/svg">
<g clip-path="url(#clip0_409_3681)">
<path d="M4.00011 2V4H10.0001C10.4281 4 11.0001 4.614 11.0001 5V6H6.00011C5.08011 6 4.26411 6.38399 3.75011 6.96899C3.23611 7.55399 2.99411 8.279 3.00011 9C3.00611 9.72 3.26911 10.453 3.78111 11.031C4.29311 11.609 5.09111 12 6.00011 12H13.0001V11.156C13.0161 11.062 13.0001 11 13.0001 11V5C13.0001 4.20435 12.684 3.4413 12.1214 2.87869C11.5588 2.31608 10.7958 2 10.0001 2H4.00011ZM6.00011 8H11.0001V10H6.00011C5.60211 10 5.43311 9.88999 5.28111 9.71899C5.12911 9.54799 5.00211 9.279 5.00011 9C4.99811 8.72 5.10511 8.44601 5.25011 8.28101C5.39511 8.11601 5.57811 8 6.00011 8Z" fill="#232323"/>
<path d="M2 13V15H14V13H2Z" fill="#232323"/>
</g>
<defs>
<clipPath id="clip0_409_3681">
<rect width="16" height="16" fill="white"/>
</clipPath>
</defs>
</svg>
