<svg width="16" height="16" viewBox="0 0 16 16" fill="none" xmlns="http://www.w3.org/2000/svg">
<g clip-path="url(#clip0_409_3689)">
<path d="M3 2.00302V4.99902L5 4.99503H9C9.428 4.99503 10 5.60903 10 5.99503V6.99503H5V6.99902C3.93913 6.99902 2.92172 7.42045 2.17157 8.17059C1.42143 8.92074 1 9.93816 1 10.999C1 12.0599 1.42143 13.0773 2.17157 13.8275C2.92172 14.5776 3.93913 14.999 5 14.999H14V5.99503C14 4.36103 12.68 1.99902 11 1.99902H5L3 2.00302ZM5 9.99902H10V11.999H5C4.602 11.999 4.433 11.889 4.281 11.718C4.129 11.547 4.002 11.278 4 10.999C3.998 10.719 4.105 10.446 4.25 10.28C4.395 10.114 4.578 10 5 10V9.99902Z" fill="#232323"/>
</g>
<defs>
<clipPath id="clip0_409_3689">
<rect width="16" height="16" fill="white"/>
</clipPath>
</defs>
</svg>
