<svg width="16" height="16" viewBox="0 0 16 16" fill="none" xmlns="http://www.w3.org/2000/svg">
<g clip-path="url(#clip0_409_3686)">
<path d="M4.49992 3V5H10.4999C10.9279 5 11.0939 5.26699 10.9689 5.71899L10.6249 7H5.37492C3.53592 7 2.24992 8.352 1.87492 9.75C1.68792 10.449 1.71292 11.229 2.12492 11.906C2.53692 12.583 3.37293 13 4.28093 13H10.2809C10.9999 13 11.2499 12.281 11.2499 12.281L12.9059 6.28101C13.3409 4.71201 12.1799 3 10.4999 3H4.49992ZM5.37492 9H10.0629L9.49992 11H4.28093C3.88293 11 3.85692 10.916 3.81192 10.844C3.76792 10.771 3.73192 10.551 3.81192 10.25C3.97392 9.648 4.52992 9 5.37492 9Z" fill="#232323"/>
</g>
<defs>
<clipPath id="clip0_409_3686">
<rect width="16" height="16" fill="white"/>
</clipPath>
</defs>
</svg>
