<svg width="16" height="16" viewBox="0 0 16 16" fill="none" xmlns="http://www.w3.org/2000/svg">
<g clip-path="url(#clip0_409_3682)">
<path d="M4 3V5H10C10.428 5 11 5.614 11 6H13C13 5.20435 12.6839 4.44129 12.1213 3.87868C11.5587 3.31607 10.7956 3 10 3H4ZM3 10C3.006 10.72 3.269 11.453 3.781 12.031C4.293 12.609 5.091 13 6 13H13V12.156C13.016 12.062 13 12 13 12V10H11V11H6C5.602 11 5.433 10.89 5.281 10.719C5.129 10.548 5.003 10.279 5.001 10H3Z" fill="#232323"/>
<path d="M1 7V9H15V7H1Z" fill="#232323"/>
</g>
<defs>
<clipPath id="clip0_409_3682">
<rect width="16" height="16" fill="white"/>
</clipPath>
</defs>
</svg>
