<svg width="16" height="16" viewBox="0 0 16 16" fill="none" xmlns="http://www.w3.org/2000/svg">
<g clip-path="url(#clip0_409_3687)">
<path d="M6.00015 0V2H12.0001C12.4281 2 13.0001 2.614 13.0001 3V4H8.00015C7.08015 4 6.26415 4.384 5.75015 4.969C5.23615 5.554 4.99315 6.279 5.00015 7C5.00615 7.72 5.26915 8.453 5.78115 9.031C6.29315 9.609 7.09115 10.001 8.00015 10.001H15.0001V3C15.0001 2.20435 14.6841 1.44129 14.1215 0.87868C13.5589 0.31607 12.7958 0 12.0001 0L6.00015 0ZM8.00015 6H13.0001V8H8.00015C7.60215 8 7.43315 7.89 7.28115 7.719C7.12915 7.548 7.00215 7.279 7.00015 7C6.99815 6.72 7.10415 6.447 7.25015 6.281C7.39615 6.115 7.57715 6.001 8.00015 6.001V6Z" fill="#232323"/>
<path d="M4 9L0 12L4 15V12.988L14 13.004V13.002C14.2647 13.002 14.5185 12.8969 14.7057 12.7097C14.8929 12.5225 14.998 12.2687 14.998 12.004C14.998 11.7393 14.8929 11.4855 14.7057 11.2983C14.5185 11.1111 14.2647 11.006 14 11.006V11.004L4 10.988V9Z" fill="#232323"/>
</g>
<defs>
<clipPath id="clip0_409_3687">
<rect width="16" height="16" fill="white"/>
</clipPath>
</defs>
</svg>
