<svg width="16" height="16" viewBox="0 0 16 16" fill="none" xmlns="http://www.w3.org/2000/svg">
<g clip-path="url(#clip0_409_3694)">
<path fill-rule="evenodd" clip-rule="evenodd" d="M1 5.00299V11.003L6 8.00299L1 5.00299Z" fill="#232323"/>
<path d="M2.00002 0.999023L14 1.00302C14.2652 1.00302 14.5196 1.10838 14.7071 1.29592C14.8947 1.48345 15 1.73781 15 2.00302C15 2.26824 14.8947 2.52259 14.7071 2.71013C14.5196 2.89767 14.2652 3.00302 14 3.00302L2.06402 2.99902C2.04274 3.00104 2.02139 3.00237 2.00002 3.00302C1.73481 3.00302 1.48045 2.89767 1.29292 2.71013C1.10538 2.52259 1.00002 2.26824 1.00002 2.00302C1.00002 1.73781 1.10538 1.48345 1.29292 1.29592C1.48045 1.10838 1.73481 1.00302 2.00002 1.00302V0.999023ZM14 5.00302C14.2652 5.00302 14.5196 5.10838 14.7071 5.29592C14.8947 5.48345 15 5.73781 15 6.00302C15 6.26824 14.8947 6.52259 14.7071 6.71013C14.5196 6.89767 14.2652 7.00302 14 7.00302V7.00702L8.00002 7.00302C7.73481 7.00302 7.48045 6.89767 7.29292 6.71013C7.10538 6.52259 7.00002 6.26824 7.00002 6.00302C7.00002 5.73781 7.10538 5.48345 7.29292 5.29592C7.48045 5.10838 7.73481 5.00302 8.00002 5.00302L13.933 5.00702C13.955 5.00496 13.977 5.00363 13.999 5.00302H14ZM14 9.00302C14.2652 9.00302 14.5196 9.10838 14.7071 9.29592C14.8947 9.48345 15 9.73781 15 10.003C15 10.2682 14.8947 10.5226 14.7071 10.7101C14.5196 10.8977 14.2652 11.003 14 11.003V11.007L8.00002 11.003C7.73481 11.003 7.48045 10.8977 7.29292 10.7101C7.10538 10.5226 7.00002 10.2682 7.00002 10.003C7.00002 9.73781 7.10538 9.48345 7.29292 9.29592C7.48045 9.10838 7.73481 9.00302 8.00002 9.00302L13.933 9.00702C13.955 9.00496 13.977 9.00363 13.999 9.00302H14ZM2.00002 12.999L14 13.003C14.2652 13.003 14.5196 13.1084 14.7071 13.2959C14.8947 13.4835 15 13.7378 15 14.003C15 14.2682 14.8947 14.5226 14.7071 14.7101C14.5196 14.8977 14.2652 15.003 14 15.003L2.06502 14.999C2.04307 15.0011 2.02106 15.0024 1.99902 15.003C1.73381 15.003 1.47945 14.8977 1.29192 14.7101C1.10438 14.5226 0.999023 14.2682 0.999023 14.003C0.999023 13.7378 1.10438 13.4835 1.29192 13.2959C1.47945 13.1084 1.73381 13.003 1.99902 13.003L2.00002 12.999Z" fill="#232323"/>
</g>
<defs>
<clipPath id="clip0_409_3694">
<rect width="16" height="16" fill="white"/>
</clipPath>
</defs>
</svg>
