<svg width="16" height="16" viewBox="0 0 16 16" fill="none" xmlns="http://www.w3.org/2000/svg">
<g clip-path="url(#clip0_409_3693)">
<path d="M1.99902 1.00299V1.00699C1.73381 1.00699 1.47945 1.11235 1.29192 1.29988C1.10438 1.48742 0.999023 1.74177 0.999023 2.00699C0.999023 2.27221 1.10438 2.52656 1.29192 2.7141C1.47945 2.90163 1.73381 3.00699 1.99902 3.00699C2.02707 3.00684 2.05509 3.0055 2.08302 3.00299H13.933C13.955 3.00505 13.977 3.00639 13.999 3.00699C14.2642 3.00699 14.5186 2.90163 14.7061 2.7141C14.8937 2.52656 14.999 2.27221 14.999 2.00699C14.999 1.74177 14.8937 1.48742 14.7061 1.29988C14.5186 1.11235 14.2642 1.00699 13.999 1.00699V1.00299H1.99902ZM4.99902 5.00699C4.73381 5.00699 4.47945 5.11235 4.29192 5.29988C4.10438 5.48742 3.99902 5.74177 3.99902 6.00699C3.99902 6.27221 4.10438 6.52656 4.29192 6.7141C4.47945 6.90163 4.73381 7.00699 4.99902 7.00699H10.999C11.2642 7.00699 11.5186 6.90163 11.7061 6.7141C11.8937 6.52656 11.999 6.27221 11.999 6.00699C11.999 5.74177 11.8937 5.48742 11.7061 5.29988C11.5186 5.11235 11.2642 5.00699 10.999 5.00699H4.99902ZM4.99902 9.00699C4.73381 9.00699 4.47945 9.11235 4.29192 9.29988C4.10438 9.48742 3.99902 9.74177 3.99902 10.007C3.99902 10.2722 4.10438 10.5266 4.29192 10.7141C4.47945 10.9016 4.73381 11.007 4.99902 11.007H10.999C11.2642 11.007 11.5186 10.9016 11.7061 10.7141C11.8937 10.5266 11.999 10.2722 11.999 10.007C11.999 9.74177 11.8937 9.48742 11.7061 9.29988C11.5186 9.11235 11.2642 9.00699 10.999 9.00699H4.99902ZM1.99902 13.003V13.007C1.73381 13.007 1.47945 13.1123 1.29192 13.2999C1.10438 13.4874 0.999023 13.7418 0.999023 14.007C0.999023 14.2722 1.10438 14.5266 1.29192 14.7141C1.47945 14.9016 1.73381 15.007 1.99902 15.007C2.02707 15.0068 2.05509 15.0055 2.08302 15.003H13.933C13.955 15.0051 13.977 15.0064 13.999 15.007C14.2642 15.007 14.5186 14.9016 14.7061 14.7141C14.8937 14.5266 14.999 14.2722 14.999 14.007C14.999 13.7418 14.8937 13.4874 14.7061 13.2999C14.5186 13.1123 14.2642 13.007 13.999 13.007V13.003H1.99902Z" fill="#232323"/>
</g>
<defs>
<clipPath id="clip0_409_3693">
<rect width="16" height="16" fill="white"/>
</clipPath>
</defs>
</svg>
