<svg width="16" height="16" viewBox="0 0 16 16" fill="none" xmlns="http://www.w3.org/2000/svg">
<g clip-path="url(#clip0_409_3692)">
<path d="M2 1.00299C1.73478 1.00299 1.48043 1.10835 1.29289 1.29588C1.10536 1.48342 1 1.73777 1 2.00299C1 2.26821 1.10536 2.52256 1.29289 2.7101C1.48043 2.89763 1.73478 3.00299 2 3.00299H14C14.2652 3.00299 14.5196 2.89763 14.7071 2.7101C14.8946 2.52256 15 2.26821 15 2.00299C15 1.73777 14.8946 1.48342 14.7071 1.29588C14.5196 1.10835 14.2652 1.00299 14 1.00299H2ZM2 5.00299C1.73478 5.00299 1.48043 5.10835 1.29289 5.29588C1.10536 5.48342 1 5.73777 1 6.00299C1 6.26821 1.10536 6.52256 1.29289 6.7101C1.48043 6.89763 1.73478 7.00299 2 7.00299V7.00699H14V7.00299C14.2652 7.00299 14.5196 6.89763 14.7071 6.7101C14.8946 6.52256 15 6.26821 15 6.00299C15 5.73777 14.8946 5.48342 14.7071 5.29588C14.5196 5.10835 14.2652 5.00299 14 5.00299H2ZM2 9.00299C1.73478 9.00299 1.48043 9.10835 1.29289 9.29588C1.10536 9.48342 1 9.73777 1 10.003C1 10.2682 1.10536 10.5226 1.29289 10.7101C1.48043 10.8976 1.73478 11.003 2 11.003V11.007H14V11.003C14.2652 11.003 14.5196 10.8976 14.7071 10.7101C14.8946 10.5226 15 10.2682 15 10.003C15 9.73777 14.8946 9.48342 14.7071 9.29588C14.5196 9.10835 14.2652 9.00299 14 9.00299H2ZM2 13.003C1.73478 13.003 1.48043 13.1083 1.29289 13.2959C1.10536 13.4834 1 13.7378 1 14.003C1 14.2682 1.10536 14.5226 1.29289 14.7101C1.48043 14.8976 1.73478 15.003 2 15.003H14C14.2652 15.003 14.5196 14.8976 14.7071 14.7101C14.8946 14.5226 15 14.2682 15 14.003C15 13.7378 14.8946 13.4834 14.7071 13.2959C14.5196 13.1083 14.2652 13.003 14 13.003H2Z" fill="#232323"/>
</g>
<defs>
<clipPath id="clip0_409_3692">
<rect width="16" height="16" fill="white"/>
</clipPath>
</defs>
</svg>
