<svg width="16" height="16" viewBox="0 0 16 16" fill="none" xmlns="http://www.w3.org/2000/svg">
<g clip-path="url(#clip0_409_3690)">
<path d="M2 0.999023L14 1.00302C14.2652 1.00302 14.5196 1.10838 14.7071 1.29592C14.8946 1.48345 15 1.73781 15 2.00302C15 2.26824 14.8946 2.52259 14.7071 2.71013C14.5196 2.89767 14.2652 3.00302 14 3.00302L2.066 2.99902C2.04405 3.00108 2.02204 3.00242 2 3.00302C1.73478 3.00302 1.48043 2.89767 1.29289 2.71013C1.10536 2.52259 1 2.26824 1 2.00302C1 1.73781 1.10536 1.48345 1.29289 1.29592C1.48043 1.10838 1.73478 1.00302 2 1.00302V0.999023ZM14 5.00302C14.2652 5.00302 14.5196 5.10838 14.7071 5.29592C14.8946 5.48345 15 5.73781 15 6.00302C15 6.26824 14.8946 6.52259 14.7071 6.71013C14.5196 6.89767 14.2652 7.00302 14 7.00302V7.00702L8 7.00302C7.73478 7.00302 7.48043 6.89767 7.29289 6.71013C7.10536 6.52259 7 6.26824 7 6.00302C7 5.73781 7.10536 5.48345 7.29289 5.29592C7.48043 5.10838 7.73478 5.00302 8 5.00302L13.934 5.00702C13.9559 5.00496 13.978 5.00363 14 5.00302ZM14 9.00302C14.2652 9.00302 14.5196 9.10838 14.7071 9.29592C14.8946 9.48345 15 9.73781 15 10.003C15 10.2682 14.8946 10.5226 14.7071 10.7101C14.5196 10.8977 14.2652 11.003 14 11.003V11.007L8 11.003C7.73478 11.003 7.48043 10.8977 7.29289 10.7101C7.10536 10.5226 7 10.2682 7 10.003C7 9.73781 7.10536 9.48345 7.29289 9.29592C7.48043 9.10838 7.73478 9.00302 8 9.00302L13.934 9.00702C13.9559 9.00496 13.978 9.00363 14 9.00302ZM2 12.999L14 13.003C14.2652 13.003 14.5196 13.1084 14.7071 13.2959C14.8946 13.4835 15 13.7378 15 14.003C15 14.2682 14.8946 14.5226 14.7071 14.7101C14.5196 14.8977 14.2652 15.003 14 15.003L2.066 14.999C2.04405 15.0011 2.02204 15.0024 2 15.003C1.73478 15.003 1.48043 14.8977 1.29289 14.7101C1.10536 14.5226 1 14.2682 1 14.003C1 13.7378 1.10536 13.4835 1.29289 13.2959C1.48043 13.1084 1.73478 13.003 2 13.003V12.999Z" fill="#232323"/>
</g>
<defs>
<clipPath id="clip0_409_3690">
<rect width="16" height="16" fill="white"/>
</clipPath>
</defs>
</svg>
