<svg width="16" height="16" viewBox="0 0 16 16" fill="none" xmlns="http://www.w3.org/2000/svg">
<g clip-path="url(#clip0_409_3695)">
<path fill-rule="evenodd" clip-rule="evenodd" d="M15 5.00299V11.003L10 8.00299L15 5.00299Z" fill="#232323"/>
<path d="M13.9702 1.00098L1.97021 1.00498C1.705 1.00498 1.45064 1.11033 1.26311 1.29787C1.07557 1.48541 0.970215 1.73976 0.970215 2.00498C0.970215 2.27019 1.07557 2.52455 1.26311 2.71208C1.45064 2.89962 1.705 3.00498 1.97021 3.00498L13.9042 3.00098C13.9262 3.00304 13.9482 3.00437 13.9702 3.00498C14.2354 3.00498 14.4898 2.89962 14.6773 2.71208C14.8649 2.52455 14.9702 2.27019 14.9702 2.00498C14.9702 1.73976 14.8649 1.48541 14.6773 1.29787C14.4898 1.11033 14.2354 1.00498 13.9702 1.00498V1.00098ZM1.97021 5.00498C1.705 5.00498 1.45064 5.11033 1.26311 5.29787C1.07557 5.48541 0.970215 5.73976 0.970215 6.00498C0.970215 6.27019 1.07557 6.52455 1.26311 6.71208C1.45064 6.89962 1.705 7.00498 1.97021 7.00498V7.00898L7.97021 7.00498C8.23543 7.00498 8.48979 6.89962 8.67732 6.71208C8.86486 6.52455 8.97021 6.27019 8.97021 6.00498C8.97021 5.73976 8.86486 5.48541 8.67732 5.29787C8.48979 5.11033 8.23543 5.00498 7.97021 5.00498L2.03621 5.00898C2.01426 5.00692 1.99225 5.00558 1.97021 5.00498ZM1.97021 9.00498C1.705 9.00498 1.45064 9.11033 1.26311 9.29787C1.07557 9.48541 0.970215 9.73976 0.970215 10.005C0.970215 10.2702 1.07557 10.5245 1.26311 10.7121C1.45064 10.8996 1.705 11.005 1.97021 11.005V11.009L7.97021 11.005C8.23543 11.005 8.48979 10.8996 8.67732 10.7121C8.86486 10.5245 8.97021 10.2702 8.97021 10.005C8.97021 9.73976 8.86486 9.48541 8.67732 9.29787C8.48979 9.11033 8.23543 9.00498 7.97021 9.00498L2.03621 9.00898C2.01426 9.00692 1.99225 9.00558 1.97021 9.00498ZM13.9702 13.001L1.97021 13.005C1.705 13.005 1.45064 13.1103 1.26311 13.2979C1.07557 13.4854 0.970215 13.7398 0.970215 14.005C0.970215 14.2702 1.07557 14.5245 1.26311 14.7121C1.45064 14.8996 1.705 15.005 1.97021 15.005L13.9042 15.001C13.9262 15.003 13.9482 15.0044 13.9702 15.005C14.2354 15.005 14.4898 14.8996 14.6773 14.7121C14.8649 14.5245 14.9702 14.2702 14.9702 14.005C14.9702 13.7398 14.8649 13.4854 14.6773 13.2979C14.4898 13.1103 14.2354 13.005 13.9702 13.005V13.001Z" fill="#232323"/>
</g>
<defs>
<clipPath id="clip0_409_3695">
<rect width="16" height="16" fill="white"/>
</clipPath>
</defs>
</svg>
