<svg width="16" height="16" viewBox="0 0 16 16" fill="none" xmlns="http://www.w3.org/2000/svg">
<g clip-path="url(#clip0_409_3688)">
<path d="M2.00011 0V2H8.00011C8.42811 2 9.00011 2.614 9.00011 3V4H4.00011C3.08011 4 2.26411 4.384 1.75011 4.969C1.23611 5.554 0.994109 6.279 1.00011 7C1.00611 7.72 1.26911 8.453 1.78111 9.031C2.29311 9.609 3.09111 10 4.00011 10H11.0001V3C11.0001 2.20435 10.684 1.44129 10.1214 0.87868C9.55882 0.31607 8.79576 0 8.00011 0L2.00011 0ZM4.00011 6H9.00011V8H4.00011C3.60211 8 3.43311 7.89 3.28111 7.719C3.12911 7.548 3.00211 7.279 3.00011 7C2.99811 6.72 3.10511 6.446 3.25011 6.281C3.39511 6.116 3.57811 6 4.00011 6Z" fill="#232323"/>
<path d="M12 9V11L2 11.004C1.73478 11.004 1.48043 11.1094 1.29289 11.2969C1.10536 11.4844 1 11.7388 1 12.004C1 12.2692 1.10536 12.5236 1.29289 12.7111C1.48043 12.8986 1.73478 13.004 2 13.004L12 13V15L16 12L12 9Z" fill="#232323"/>
</g>
<defs>
<clipPath id="clip0_409_3688">
<rect width="16" height="16" fill="white"/>
</clipPath>
</defs>
</svg>
