<svg width="16" height="16" viewBox="0 0 16 16" fill="none" xmlns="http://www.w3.org/2000/svg">
<path d="M8.61106 10.8C8.61106 10.8 8.37437 11 8.01163 11C7.64889 11 7.4122 10.8 7.4122 10.8L1.21812 4.59948C1.21812 4.59948 0.63914 3.86008 1.36778 3.24935C1.96029 2.71913 2.61659 3.19936 2.61659 3.19936L8.01163 8.4998L13.4063 3.19936C13.4063 3.19936 14.0057 2.71913 14.6551 3.24937C15.3309 3.8405 14.8051 4.59948 14.8051 4.59948L8.61106 10.8Z" fill="#232323"/>
<path d="M10 14C10 15.1046 9.10457 16 8 16C6.89543 16 6 15.1046 6 14C6 12.8954 6.89543 12 8 12C9.10457 12 10 12.8954 10 14Z" fill="#232323"/>
</svg>
