<svg width="16" height="16" viewBox="0 0 16 16" fill="none" xmlns="http://www.w3.org/2000/svg">
<path d="M5.20002 8.61106C5.20002 8.61106 5.00002 8.37437 5 8.01163C4.99998 7.64889 5.20002 7.4122 5.20002 7.4122L11.4005 1.21812C11.4005 1.21812 12.1399 0.63914 12.7507 1.36778C13.2809 1.96029 12.8006 2.61659 12.8006 2.61659L7.50021 8.01163L12.8006 13.4063C12.8006 13.4063 13.2809 14.0057 12.7506 14.6551C12.1595 15.3309 11.4005 14.8051 11.4005 14.8051L5.20002 8.61106Z" fill="#232323"/>
<path d="M4 8C4 9.10457 3.10457 10 2 10C0.89543 10 0 9.10457 0 8C0 6.89543 0.89543 6 2 6C3.10457 6 4 6.89543 4 8Z" fill="#232323"/>
</svg>
