<svg width="16" height="16" viewBox="0 0 16 16" fill="none" xmlns="http://www.w3.org/2000/svg">
<g clip-path="url(#clip0_409_3676)">
<path d="M7 1C5.67473 1.00264 4.40449 1.53027 3.46738 2.46738C2.53027 3.40449 2.00264 4.67473 2 6V10.004C2 10.2692 2.10536 10.5236 2.29289 10.7111C2.48043 10.8987 2.73478 11.004 3 11.004C3.26522 11.004 3.51957 10.8987 3.70711 10.7111C3.89464 10.5236 4 10.2692 4 10.004V6C4 4.32 5.32 3 7 3C8.68 3 10 4.32 10 6V9H8L11 14L14 9H12V6C12 3.247 9.753 1 7 1Z" fill="#232323"/>
</g>
<defs>
<clipPath id="clip0_409_3676">
<rect width="16" height="16" fill="white"/>
</clipPath>
</defs>
</svg>
