<svg width="16" height="16" viewBox="0 0 16 16" fill="none" xmlns="http://www.w3.org/2000/svg">
<path d="M16 8C16 9.10457 15.1046 10 14 10C12.8954 10 12 9.10457 12 8C12 6.89543 12.8954 6 14 6C15.1046 6 16 6.89543 16 8Z" fill="#232323"/>
<path d="M10.8 8.61106C10.8 8.61106 11 8.37437 11 8.01163C11 7.64889 10.8 7.4122 10.8 7.4122L4.59947 1.21812C4.59947 1.21812 3.86007 0.63914 3.24935 1.36778C2.71912 1.96029 3.19936 2.61659 3.19936 2.61659L8.49979 8.01163L3.19936 13.4063C3.19936 13.4063 2.71913 14.0057 3.24936 14.6551C3.8405 15.3309 4.59947 14.8051 4.59947 14.8051L10.8 8.61106Z" fill="#232323"/>
</svg>
