<svg width="16" height="16" viewBox="0 0 16 16" fill="none" xmlns="http://www.w3.org/2000/svg">
<path d="M10 2C10 3.10457 9.10457 4 8 4C6.89543 4 6 3.10457 6 2C6 0.89543 6.89543 0 8 0C9.10457 0 10 0.89543 10 2Z" fill="#232323"/>
<path d="M8.61106 5.20002C8.61106 5.20002 8.37437 5.00002 8.01163 5C7.64889 4.99998 7.4122 5.20002 7.4122 5.20002L1.21812 11.4005C1.21812 11.4005 0.63914 12.1399 1.36778 12.7507C1.96029 13.2809 2.61659 12.8006 2.61659 12.8006L8.01163 7.50021L13.4063 12.8006C13.4063 12.8006 14.0057 13.2809 14.6551 12.7506C15.3309 12.1595 14.8051 11.4005 14.8051 11.4005L8.61106 5.20002Z" fill="#232323"/>
</svg>
