<svg width="16" height="16" viewBox="0 0 16 16" fill="none" xmlns="http://www.w3.org/2000/svg">
<path d="M3.97286 1.00439C2.97986 1.00439 2.16286 1.72994 2.00586 2.67735V14.3211C2.08217 14.7876 2.32183 15.212 2.68209 15.5184C3.04235 15.8248 3.4998 15.9933 3.97286 15.994H11.9729C13.0629 15.994 13.9469 15.1206 13.9689 14.0352C13.9789 12.9429 13.9739 8.61664 13.9689 5.91033C13.9594 5.4127 13.7643 4.93653 13.4219 4.57516L10.4529 1.60902C10.2665 1.41769 10.0437 1.26562 9.79759 1.16178C9.55146 1.05793 9.28702 1.00442 9.01986 1.00439H3.97286ZM8.00586 6.00127C8.2685 6.00127 8.52858 6.05297 8.77123 6.15342C9.01388 6.25386 9.23436 6.40109 9.42007 6.58669C9.60579 6.77229 9.75311 6.99263 9.85362 7.23513C9.95413 7.47763 10.0059 7.73754 10.0059 8.00002C10.0059 8.2625 9.95413 8.52241 9.85362 8.76491C9.75311 9.00741 9.60579 9.22775 9.42007 9.41335C9.23436 9.59895 9.01388 9.74618 8.77123 9.84663C8.52858 9.94707 8.2685 9.99877 8.00586 9.99877V10.9981H7.00586V8.9994H8.00586C8.20364 8.9994 8.39698 8.94078 8.56143 8.83097C8.72588 8.72116 8.85405 8.56508 8.92974 8.38247C9.00543 8.19985 9.02523 7.99891 8.98664 7.80505C8.94806 7.61119 8.85282 7.43312 8.71297 7.29336C8.57311 7.15359 8.39493 7.05841 8.20095 7.01985C8.00697 6.98129 7.8059 7.00108 7.62318 7.07672C7.44045 7.15236 7.28427 7.28045 7.17439 7.4448C7.06451 7.60915 7.00586 7.80236 7.00586 8.00002H6.00586C6.00586 7.46992 6.21657 6.96153 6.59165 6.58669C6.96672 6.21185 7.47543 6.00127 8.00586 6.00127ZM7.00586 11.9975H8.00586V12.9969H7.00586V11.9975Z" fill="#232323"/>
</svg>
