<svg width="16" height="16" viewBox="0 0 16 16" fill="none" xmlns="http://www.w3.org/2000/svg">
<g clip-path="url(#clip0_1518_3957)">
<path d="M0 -0.00500488H16V15.985H0V-0.00500488Z" fill="#808080" fill-opacity="0.00"/>
<path opacity="0.5" d="M6.96998 1.00439C5.96998 1.00439 5.14998 1.73993 5.00098 2.69634V3.00315H8.40698L13.001 7.59428C13.004 9.39315 12.999 11.193 13.001 12.9929C13.5255 12.9853 14.026 12.7718 14.3944 12.3986C14.7628 12.0254 14.9695 11.5224 14.97 10.9981V6.00127C14.9704 5.48838 14.7734 4.99498 14.42 4.62313L11.45 1.65599C11.074 1.26923 10.51 1.00439 9.96998 1.00439H6.96998Z" fill="#232323"/>
<path d="M3.96998 4.0025C2.96998 4.0025 2.14998 4.73804 2.00098 5.69444V14.3031C2.14998 15.2595 2.97098 15.995 3.96998 15.995H9.96998C10.5004 15.995 11.0091 15.7844 11.3842 15.4096C11.7593 15.0347 11.97 14.5264 11.97 13.9963V8.99938C11.9704 8.48649 11.7734 7.99308 11.42 7.62124L8.44998 4.6541C8.07398 4.26734 7.50998 4.0025 6.96998 4.0025H3.96998ZM7.00098 7.00063C7.26362 7.00063 7.52369 7.05233 7.76634 7.15277C8.00899 7.25322 8.22947 7.40045 8.41519 7.58605C8.60091 7.77165 8.74823 7.99199 8.84874 8.23449C8.94924 8.47699 9.00098 8.7369 9.00098 8.99938C9.00098 9.26186 8.94924 9.52177 8.84874 9.76427C8.74823 10.0068 8.60091 10.2271 8.41519 10.4127C8.22947 10.5983 8.00899 10.7455 7.76634 10.846C7.52369 10.9464 7.26362 10.9981 7.00098 10.9981V11.9975H6.00098V9.99875H7.00098C7.19876 9.99875 7.3921 9.94014 7.55655 9.83033C7.721 9.72052 7.84917 9.56444 7.92486 9.38182C8.00054 9.19921 8.02035 8.99827 7.98176 8.80441C7.94318 8.61055 7.84794 8.43248 7.70808 8.29271C7.56823 8.15295 7.39005 8.05777 7.19607 8.01921C7.00209 7.98065 6.80102 8.00044 6.61829 8.07608C6.43557 8.15172 6.27939 8.27981 6.16951 8.44416C6.05963 8.6085 6.00098 8.80172 6.00098 8.99938H5.00098C5.00098 8.46928 5.21169 7.96089 5.58676 7.58605C5.96184 7.21121 6.47054 7.00063 7.00098 7.00063ZM6.00098 12.9969H7.00098V13.9963H6.00098V12.9969Z" fill="#232323"/>
</g>
<defs>
<clipPath id="clip0_1518_3957">
<rect width="16" height="16" fill="white"/>
</clipPath>
</defs>
</svg>
