<svg width="16" height="16" viewBox="0 0 16 16" fill="none" xmlns="http://www.w3.org/2000/svg">
<g clip-path="url(#clip0_409_3669)">
<path d="M8 1C6.14348 1 4.36301 1.7375 3.05025 3.05025C1.7375 4.36301 1 6.14348 1 8C1 9.85652 1.7375 11.637 3.05025 12.9497C4.36301 14.2625 6.14348 15 8 15C9.85652 15 11.637 14.2625 12.9497 12.9497C14.2625 11.637 15 9.85652 15 8C15 6.14348 14.2625 4.36301 12.9497 3.05025C11.637 1.7375 9.85652 1 8 1ZM8 3.75C8.33152 3.75 8.64946 3.8817 8.88388 4.11612C9.1183 4.35054 9.25 4.66848 9.25 5C9.25 5.33152 9.1183 5.64946 8.88388 5.88388C8.64946 6.1183 8.33152 6.25 8 6.25C7.66848 6.25 7.35054 6.1183 7.11612 5.88388C6.8817 5.64946 6.75 5.33152 6.75 5C6.75 4.66848 6.8817 4.35054 7.11612 4.11612C7.35054 3.8817 7.66848 3.75 8 3.75ZM7 7H9V12H7V7Z" fill="#232323"/>
</g>
<defs>
<clipPath id="clip0_409_3669">
<rect width="16" height="16" fill="white"/>
</clipPath>
</defs>
</svg>
