<svg width="16" height="16" viewBox="0 0 16 16" fill="none" xmlns="http://www.w3.org/2000/svg">
<g clip-path="url(#clip0_409_3664)">
<path d="M1.64 0.640015C1.37478 0.640015 1.12043 0.745372 0.932893 0.932908C0.745357 1.12044 0.64 1.3748 0.64 1.64001C0.640127 1.78716 0.672727 1.93247 0.735474 2.06557C0.798221 2.19867 0.889569 2.31628 1.003 2.41001L3.05 4.45601C0.85 5.93101 0 8.00001 0 8.00001C0 8.00001 2 13.004 8 13.004C9.04792 13.0087 10.0888 12.8328 11.077 12.484L13.575 14.981L13.593 15.001C13.6867 15.1132 13.8038 15.2035 13.9362 15.2655C14.0685 15.3275 14.2128 15.3598 14.359 15.36C14.6242 15.36 14.8786 15.2547 15.0661 15.0671C15.2536 14.8796 15.359 14.6252 15.359 14.36C15.3591 14.2109 15.3258 14.0636 15.2616 13.929C15.1974 13.7944 15.1039 13.6758 14.988 13.582L2.424 1.02001C2.33035 0.901816 2.21119 0.806328 2.07542 0.740696C1.93965 0.675063 1.7908 0.640986 1.64 0.641015V0.640015ZM8 3.00301C7.475 3.00301 6.993 3.05301 6.529 3.12301L8.449 5.04302C9.08163 5.1392 9.66693 5.43514 10.1194 5.88761C10.5719 6.34009 10.8678 6.92539 10.964 7.55801L14.074 10.668C15.447 9.36502 15.999 8.00302 15.999 8.00302C15.999 8.00302 13.999 3.00301 7.999 3.00301H8ZM5.3 6.70601L9.298 10.704C8.89298 10.9002 8.44902 11.0027 7.999 11.004C7.20335 11.004 6.44029 10.6879 5.87768 10.1253C5.31507 9.56273 4.999 8.79966 4.999 8.00401C5.00062 7.55392 5.10349 7.10995 5.3 6.70501V6.70601Z" fill="#232323"/>
</g>
<defs>
<clipPath id="clip0_409_3664">
<rect width="16" height="16" fill="white"/>
</clipPath>
</defs>
</svg>
