<svg width="16" height="16" viewBox="0 0 16 16" fill="none" xmlns="http://www.w3.org/2000/svg">
<g clip-path="url(#clip0_409_3659)">
<path d="M5 12L8 16L11 12H5Z" fill="#232323"/>
<path d="M8 0C6.67392 0 5.40215 0.526784 4.46447 1.46447C3.52678 2.40215 3 3.67392 3 5C3 6.32608 3.52678 7.59785 4.46447 8.53553C5.40215 9.47322 6.67392 10 8 10C9.32608 10 10.5979 9.47322 11.5355 8.53553C12.4732 7.59785 13 6.32608 13 5C13 3.67392 12.4732 2.40215 11.5355 1.46447C10.5979 0.526784 9.32608 0 8 0V0Z" fill="#232323"/>
</g>
<defs>
<clipPath id="clip0_409_3659">
<rect width="16" height="16" fill="white"/>
</clipPath>
</defs>
</svg>
