<svg width="16" height="16" viewBox="0 0 16 16" fill="none" xmlns="http://www.w3.org/2000/svg">
<g clip-path="url(#clip0_409_3658)">
<path d="M4.29987 2L1.44287 10H2.87187L3.47887 8.286H6.26387L6.87087 10H8.46087L5.44287 2H4.29987ZM4.87087 4.286L5.87087 7.143H3.87087L4.87087 4.286Z" fill="#232323"/>
<path d="M10.0001 5V6H12.5001C12.7141 6 13.0001 6.307 13.0001 6.5V7H10.5001C10.0401 7 9.63214 7.192 9.37514 7.484C9.12873 7.7646 8.99511 8.1266 9.00014 8.5C9.00314 8.86 9.13415 9.226 9.39015 9.516C9.64715 9.805 10.0461 10 10.5001 10H14.0001V9.578C14.0081 9.531 14.0001 9.5 14.0001 9.5V6.5C14.0001 6.10218 13.8421 5.72064 13.5608 5.43934C13.2795 5.15803 12.898 5 12.5001 5H10.0001ZM10.5001 8H13.0001V9H10.5001C10.3011 9 10.2162 8.945 10.1402 8.86C10.0532 8.75986 10.0036 8.6326 10.0001 8.5C9.99914 8.36 10.0521 8.223 10.1251 8.14C10.1981 8.057 10.2891 8 10.5001 8Z" fill="#232323"/>
<path d="M5 12L8 16L11 12H5Z" fill="#232323"/>
</g>
<defs>
<clipPath id="clip0_409_3658">
<rect width="16" height="16" fill="white"/>
</clipPath>
</defs>
</svg>
