<svg width="16" height="16" viewBox="0 0 16 16" fill="none" xmlns="http://www.w3.org/2000/svg">
<g clip-path="url(#clip0_409_3660)">
<path d="M5 12.003L8 16.003L11 12.003H5Z" fill="#232323"/>
<path d="M0 4.00299V6.00299H4C4 6.00299 5 6.00299 5 5.00299C5 4.00299 4 4.00299 4 4.00299H0ZM12 4.00299C12 4.00299 11 4.00299 11 5.00299C11 6.00299 12 6.00299 12 6.00299H16V4.00299H12Z" fill="#232323"/>
<path d="M6.00008 1.00299C4.53208 1.00299 3.25408 1.81399 2.55908 3.00299H13.4421C12.7461 1.81499 11.4681 1.00299 10.0001 1.00299H6.00008ZM2.55908 7.00299C3.25408 8.19099 4.53208 9.00299 6.00008 9.00299H10.0001C11.4681 9.00299 12.7461 8.19199 13.4411 7.00299H6.00008H2.55908Z" fill="#232323"/>
</g>
<defs>
<clipPath id="clip0_409_3660">
<rect width="16" height="16.003" fill="white"/>
</clipPath>
</defs>
</svg>
