<svg width="16" height="16" viewBox="0 0 16 16" fill="none" xmlns="http://www.w3.org/2000/svg">
<g clip-path="url(#clip0_409_3648)">
<path d="M5.21996 1L4.90695 1.28101L1.28195 4.90601L1.00195 5.21899V10.78L1.28195 11.093L4.90695 14.718L5.21996 14.999H10.782L11.095 14.718L14.72 11.093L15.001 10.78V5.21997L14.72 4.90698L11.095 1.28198L10.782 1.00098H5.62596L5.21996 1ZM11.95 4.63702C12.0814 4.63692 12.2116 4.66274 12.3331 4.71301C12.4546 4.76329 12.565 4.83701 12.658 4.92999C12.8454 5.11752 12.9507 5.37186 12.9507 5.63702C12.9507 5.90219 12.8454 6.15647 12.658 6.34399L6.99995 12L3.46495 8.46503C3.27748 8.2775 3.17216 8.02316 3.17216 7.758C3.17216 7.49283 3.27748 7.23855 3.46495 7.05103C3.65248 6.86355 3.90679 6.75824 4.17195 6.75824C4.43712 6.75824 4.69142 6.86355 4.87895 7.05103L6.99995 9.17102L11.243 4.92999C11.4304 4.74244 11.6848 4.63708 11.95 4.63702Z" fill="#232323"/>
</g>
<defs>
<clipPath id="clip0_409_3648">
<rect width="16" height="16" fill="white"/>
</clipPath>
</defs>
</svg>
