<svg width="16" height="16" viewBox="0 0 16 16" fill="none" xmlns="http://www.w3.org/2000/svg">
<g clip-path="url(#clip0_409_3647)">
<path d="M8 1C6.14348 1 4.36301 1.7375 3.05025 3.05025C1.7375 4.36301 1 6.14348 1 8C1 9.85652 1.7375 11.637 3.05025 12.9497C4.36301 14.2625 6.14348 15 8 15C9.85652 15 11.637 14.2625 12.9497 12.9497C14.2625 11.637 15 9.85652 15 8C15 6.14348 14.2625 4.36301 12.9497 3.05025C11.637 1.7375 9.85652 1 8 1ZM8 2.996C9.32608 2.996 10.5979 3.52278 11.5355 4.46047C12.4732 5.39815 13 6.66992 13 7.996C13 9.32208 12.4732 10.5939 11.5355 11.5315C10.5979 12.4692 9.32608 12.996 8 12.996C6.67392 12.996 5.40215 12.4692 4.46447 11.5315C3.52678 10.5939 3 9.32208 3 7.996C3 6.66992 3.52678 5.39815 4.46447 4.46047C5.40215 3.52278 6.67392 2.996 8 2.996Z" fill="#232323"/>
</g>
<defs>
<clipPath id="clip0_409_3647">
<rect width="16" height="16" fill="white"/>
</clipPath>
</defs>
</svg>
