<svg width="16" height="16" viewBox="0 0 16 16" fill="none" xmlns="http://www.w3.org/2000/svg">
<path d="M3.99905 2.64001C3.74443 2.64059 3.49963 2.73826 3.31455 2.91312C3.12948 3.08798 3.01807 3.32684 3.00305 3.58101H3.00005V3.60701L2.99805 3.64001C2.99805 3.66301 2.99805 3.68701 3.00005 3.71001L2.99805 12.286C2.99805 12.5512 3.1034 12.8056 3.29094 12.9931C3.47848 13.1807 3.73283 13.286 3.99805 13.286C4.14396 13.2855 4.288 13.2531 4.42005 13.191L4.42205 13.193L4.44705 13.179L4.45105 13.177C4.48118 13.1622 4.51056 13.1458 4.53905 13.128L12.385 8.85701L12.395 8.85301V8.85001C12.5535 8.76668 12.6867 8.64234 12.7807 8.48996C12.8747 8.33759 12.9261 8.16277 12.9294 7.98377C12.9328 7.80477 12.8881 7.62814 12.7999 7.47233C12.7117 7.31653 12.5833 7.18725 12.428 7.09801L12.41 7.08801L12.406 7.08601L4.48205 2.76401H4.48005C4.33283 2.68345 4.16786 2.64083 4.00005 2.64001H3.99905Z" fill="#232323"/>
</svg>
