<svg width="16" height="16" viewBox="0 0 16 16" fill="none" xmlns="http://www.w3.org/2000/svg">
<g clip-path="url(#clip0_409_3629)">
<path d="M16 4V12.006H14V4H16ZM14 8L8.578 11.117C8.42848 11.2229 8.25274 11.2857 8.06996 11.2985C7.88718 11.3113 7.70439 11.2737 7.54156 11.1897C7.37872 11.1057 7.24209 10.9786 7.14658 10.8222C7.05108 10.6658 7.00037 10.4862 7 10.303V8.003H6.996L1.578 11.113C1.42855 11.2189 1.2529 11.2816 1.07021 11.2945C0.887517 11.3074 0.704804 11.2698 0.541998 11.1859C0.379193 11.102 0.242549 10.9751 0.146972 10.8188C0.0513948 10.6626 0.000555564 10.4831 0 10.3L0 5.707C0.000189981 5.52369 0.0507637 5.34396 0.146195 5.18744C0.241625 5.03093 0.378241 4.90366 0.541113 4.81954C0.703984 4.73542 0.886844 4.69769 1.06971 4.71047C1.25258 4.72325 1.42841 4.78605 1.578 4.892L6.996 8.002H7V5.702C7.00037 5.51877 7.05108 5.33917 7.14658 5.1828C7.24209 5.02643 7.37872 4.89931 7.54156 4.81531C7.70439 4.73131 7.88718 4.69367 8.06996 4.70649C8.25274 4.7193 8.42848 4.78209 8.578 4.888L14 8Z" fill="#232323"/>
</g>
<defs>
<clipPath id="clip0_409_3629">
<rect width="16" height="16" fill="white"/>
</clipPath>
</defs>
</svg>
