<svg width="16" height="16" viewBox="0 0 16 16" fill="none" xmlns="http://www.w3.org/2000/svg">
<g clip-path="url(#clip0_409_3630)">
<path d="M0 4V12.006H2V4H0ZM7.422 11.117C7.57152 11.2229 7.74726 11.2857 7.93004 11.2985C8.11282 11.3113 8.29561 11.2737 8.45844 11.1897C8.62128 11.1057 8.75791 10.9786 8.85342 10.8222C8.94892 10.6658 8.99963 10.4862 9 10.303V8.003H9.004L14.422 11.113C14.5715 11.2189 14.7471 11.2816 14.9298 11.2945C15.1125 11.3074 15.2952 11.2698 15.458 11.1859C15.6208 11.102 15.7575 10.9751 15.853 10.8188C15.9486 10.6626 15.9994 10.4831 16 10.3V5.707C15.9998 5.52369 15.9492 5.34396 15.8538 5.18744C15.7584 5.03093 15.6218 4.90366 15.4589 4.81954C15.296 4.73542 15.1132 4.69769 14.9303 4.71047C14.7474 4.72325 14.5716 4.78605 14.422 4.892L9.004 8.002H9V5.703C8.99963 5.51977 8.94892 5.34017 8.85342 5.1838C8.75791 5.02743 8.62128 4.90031 8.45844 4.81631C8.29561 4.73231 8.11282 4.69467 7.93004 4.70749C7.74726 4.7203 7.57152 4.78309 7.422 4.889L2 8.004L7.422 11.117Z" fill="#232323"/>
</g>
<defs>
<clipPath id="clip0_409_3630">
<rect width="16" height="16" fill="white"/>
</clipPath>
</defs>
</svg>
