<svg width="16" height="16" viewBox="0 0 16 16" fill="none" xmlns="http://www.w3.org/2000/svg">
<g clip-path="url(#clip0_409_3638)">
<path d="M8 3.46002C7.85866 3.45998 7.71891 3.48991 7.58998 3.54783C7.46104 3.60574 7.34585 3.69033 7.252 3.79602L3.658 7.39002C3.53048 7.53337 3.44707 7.7105 3.41781 7.90011C3.38855 8.08972 3.41467 8.28376 3.49304 8.45888C3.57142 8.634 3.6987 8.78276 3.85959 8.88727C4.02049 8.99179 4.20814 9.04761 4.4 9.04802L4.402 9.05202H11.602C11.7888 9.05213 11.972 8.99991 12.1306 8.90126C12.2893 8.80261 12.4171 8.66148 12.4997 8.49388C12.5822 8.32628 12.6162 8.1389 12.5977 7.95299C12.5792 7.76708 12.509 7.59007 12.395 7.44202L8.75 3.79702H8.746C8.65246 3.6914 8.53763 3.60677 8.40906 3.54869C8.28049 3.49061 8.14108 3.46039 8 3.46002ZM4 11.052C3.73478 11.052 3.48043 11.1574 3.29289 11.3449C3.10536 11.5325 3 11.7868 3 12.052C3 12.3172 3.10536 12.5716 3.29289 12.7591C3.48043 12.9467 3.73478 13.052 4 13.052H12C12.2652 13.052 12.5196 12.9467 12.7071 12.7591C12.8946 12.5716 13 12.3172 13 12.052C13 11.7868 12.8946 11.5325 12.7071 11.3449C12.5196 11.1574 12.2652 11.052 12 11.052H4Z" fill="#232323"/>
</g>
<defs>
<clipPath id="clip0_409_3638">
<rect width="16" height="16" fill="white"/>
</clipPath>
</defs>
</svg>
