<svg width="16" height="16" viewBox="0 0 16 16" fill="none" xmlns="http://www.w3.org/2000/svg">
<path d="M3.00106 3C2.74645 3.00057 2.50164 3.09825 2.31657 3.27311C2.13149 3.44796 2.02008 3.68683 2.00506 3.941H2.00206V3.967L2.00006 4C2.00006 4.023 2.00006 4.047 2.00206 4.07L2.00006 12.646C2.00006 12.9112 2.10542 13.1656 2.29295 13.3531C2.48049 13.5406 2.73484 13.646 3.00006 13.646C3.14597 13.6455 3.29001 13.6131 3.42206 13.551L3.42406 13.553L3.44906 13.539L3.45306 13.537C3.4832 13.5222 3.51257 13.5058 3.54106 13.488L11.3881 9.217L11.3981 9.213V9.21C11.5565 9.12667 11.6897 9.00232 11.7837 8.84995C11.8777 8.69757 11.9291 8.52276 11.9324 8.34375C11.9358 8.16475 11.8911 7.98812 11.8029 7.83232C11.7147 7.67651 11.5863 7.54724 11.4311 7.458L11.4131 7.448L11.4091 7.446L3.48506 3.124H3.48306C3.33555 3.04327 3.17022 3.00065 3.00206 3H3.00106Z" fill="#232323"/>
<rect width="2" height="11" transform="matrix(-1 0 0 1 13.9326 3)" fill="#232323"/>
</svg>
