<svg width="16" height="16" viewBox="0 0 16 16" fill="none" xmlns="http://www.w3.org/2000/svg">
<g clip-path="url(#clip0_409_3637)">
<path d="M6 2L3 2.004C2.73478 2.004 2.48043 2.10936 2.29289 2.29689C2.10536 2.48443 2 2.73878 2 3.004V13.004C2 13.2692 2.10536 13.5236 2.29289 13.7111C2.48043 13.8986 2.73478 14.004 3 14.004L6 14V2Z" fill="#232323"/>
<path d="M10 2V14L13 14.004C13.2652 14.004 13.5196 13.8986 13.7071 13.7111C13.8946 13.5236 14 13.2692 14 13.004V3.004C14 2.73878 13.8946 2.48443 13.7071 2.29689C13.5196 2.10936 13.2652 2.004 13 2.004L10 2Z" fill="#232323"/>
</g>
<defs>
<clipPath id="clip0_409_3637">
<rect width="16" height="16" fill="white"/>
</clipPath>
</defs>
</svg>
