<svg width="16" height="16" viewBox="0 0 16 16" fill="none" xmlns="http://www.w3.org/2000/svg">
<g clip-path="url(#clip0_409_3635)">
<path d="M12.0009 2.64001C12.2555 2.64059 12.5003 2.73826 12.6854 2.91312C12.8705 3.08798 12.9819 3.32684 12.9969 3.58101H12.9999V3.60701L13.0019 3.64001C13.0019 3.66301 13.0019 3.68701 12.9999 3.71001L13.0019 12.286C13.0019 12.5512 12.8965 12.8056 12.709 12.9931C12.5215 13.1807 12.2671 13.286 12.0019 13.286C11.856 13.2855 11.7119 13.2531 11.5799 13.191L11.5779 13.193L11.5529 13.179L11.5489 13.177C11.5188 13.1622 11.4894 13.1458 11.4609 13.128L3.61389 8.85701L3.60389 8.85301V8.85001C3.44543 8.76668 3.31225 8.64234 3.21825 8.48996C3.12425 8.33759 3.07288 8.16277 3.06951 7.98377C3.06614 7.80477 3.11089 7.62814 3.19908 7.47233C3.28728 7.31653 3.41568 7.18725 3.57089 7.09801L3.58889 7.08801L3.59289 7.08601L11.5169 2.76401H11.5189C11.6664 2.68328 11.8317 2.64066 11.9999 2.64001H12.0009Z" fill="#232323"/>
</g>
<defs>
<clipPath id="clip0_409_3635">
<rect width="16" height="16" fill="white"/>
</clipPath>
</defs>
</svg>
