<svg width="16" height="16" viewBox="0 0 16 16" fill="none" xmlns="http://www.w3.org/2000/svg">
<path d="M12.9316 3C13.1862 3.00057 13.431 3.09825 13.6161 3.27311C13.8011 3.44796 13.9125 3.68683 13.9276 3.941H13.9306V3.967L13.9326 4C13.9326 4.023 13.9326 4.047 13.9306 4.07L13.9326 12.646C13.9326 12.9112 13.8272 13.1656 13.6397 13.3531C13.4521 13.5406 13.1978 13.646 12.9326 13.646C12.7866 13.6455 12.6426 13.6131 12.5106 13.551L12.5086 13.553L12.4836 13.539L12.4796 13.537C12.4494 13.5222 12.42 13.5058 12.3916 13.488L4.54456 9.217L4.53456 9.213V9.21C4.3761 9.12667 4.24291 9.00232 4.14891 8.84995C4.05492 8.69757 4.00355 8.52276 4.00018 8.34375C3.99681 8.16475 4.04155 7.98812 4.12975 7.83232C4.21794 7.67651 4.34635 7.54724 4.50156 7.458L4.51956 7.448L4.52356 7.446L12.4476 3.124H12.4496C12.5971 3.04327 12.7624 3.00065 12.9306 3H12.9316Z" fill="#232323"/>
<rect x="2" y="3" width="2" height="11" fill="#232323"/>
</svg>
