<svg width="16" height="16" viewBox="0 0 16 16" fill="none" xmlns="http://www.w3.org/2000/svg">
<g clip-path="url(#clip0_409_3613)">
<path d="M7.98682 0.00299072V2.00299C6.39552 2.00299 4.86939 2.63513 3.74418 3.76035C2.61896 4.88557 1.98682 6.41169 1.98682 8.00299C1.98682 9.59429 2.61896 11.1204 3.74418 12.2456C4.86939 13.3708 6.39552 14.003 7.98682 14.003C11.2668 14.003 13.9268 11.37 13.9808 8.10299C13.9848 8.06981 13.9868 8.03641 13.9868 8.00299C13.9868 7.99699 13.9828 7.99199 13.9828 7.98499H13.9808C13.9761 7.72291 13.8687 7.47315 13.6816 7.28949C13.4946 7.10583 13.2429 7.00295 12.9808 7.00299C12.7156 7.00299 12.4612 7.10835 12.2737 7.29588C12.0862 7.48342 11.9808 7.73777 11.9808 8.00299C11.9811 8.018 11.9818 8.03301 11.9828 8.04799C11.9768 9.10833 11.5499 10.1229 10.7959 10.8684C10.0419 11.614 9.02265 12.0295 7.96232 12.0235C6.90198 12.0175 5.88744 11.5906 5.14189 10.8366C4.39634 10.0826 3.98085 9.06333 3.98682 8.00299C3.98682 6.94212 4.40824 5.92471 5.15839 5.17456C5.90853 4.42442 6.92595 4.00299 7.98682 4.00299V6.00299L11.4808 2.98499L7.98682 0.00299072Z" fill="#232323"/>
</g>
<defs>
<clipPath id="clip0_409_3613">
<rect width="16" height="16" fill="white"/>
</clipPath>
</defs>
</svg>
