<svg width="16" height="16" viewBox="0 0 16 16" fill="none" xmlns="http://www.w3.org/2000/svg">
<g clip-path="url(#clip0_409_3612)">
<path d="M8.03003 0L4.46703 2.982L8.02803 6V4C9.08889 4 10.1063 4.42143 10.8565 5.17157C11.6066 5.92172 12.028 6.93913 12.028 8C12.028 9.06087 11.6066 10.0783 10.8565 10.8284C10.1063 11.5786 9.08889 12 8.02803 12C5.81803 12 4.00503 10.227 4.00503 8.018C4.00503 8.012 4.00003 8.006 4.00003 8C4.00003 7.73478 3.89467 7.48043 3.70713 7.29289C3.5196 7.10536 3.26524 7 3.00003 7C2.73481 7 2.48046 7.10536 2.29292 7.29289C2.10538 7.48043 2.00003 7.73478 2.00003 8C1.99959 8.06033 2.00461 8.12058 2.01503 8.18C2.10303 11.417 4.77103 14 8.03003 14C9.62133 14 11.1474 13.3679 12.2727 12.2426C13.3979 11.1174 14.03 9.5913 14.03 8C14.03 6.4087 13.3979 4.88258 12.2727 3.75736C11.1474 2.63214 9.62133 2 8.03003 2V0Z" fill="#232323"/>
</g>
<defs>
<clipPath id="clip0_409_3612">
<rect width="16" height="16" fill="white"/>
</clipPath>
</defs>
</svg>
