<svg width="16" height="16" viewBox="0 0 16 16" fill="none" xmlns="http://www.w3.org/2000/svg">
<g clip-path="url(#clip0_409_3624)">
<path d="M5.21996 1L4.90695 1.28101L1.28195 4.90601L1.00195 5.21899V10.78L1.28195 11.093L4.90695 14.718L5.21996 14.999H10.782L11.095 14.718L14.72 11.093L15.001 10.78V5.22L14.72 4.90701L11.095 1.28201L10.782 1.00101H5.62596L5.21996 1ZM4.96996 4.93799H5.96996C6.24596 4.93799 6.50795 5.03802 6.68895 5.21802L7.96996 6.496L9.25096 5.21899C9.43196 5.03799 9.69396 4.93799 9.96996 4.93799H10.97V5.93799C10.97 6.21399 10.8699 6.47501 10.6889 6.65601L9.40695 7.93399L10.6889 9.21899C10.8689 9.39899 10.9709 9.66099 10.9689 9.93799V10.938H9.96895C9.69395 10.938 9.43196 10.838 9.25096 10.656L7.96996 9.371L6.68895 10.656C6.49565 10.8407 6.23728 10.9417 5.96996 10.937H4.96996V9.93701C4.96996 9.66101 5.06996 9.39999 5.25096 9.21899L6.53195 7.93399L5.25195 6.65601C5.06688 6.46286 4.96554 6.20447 4.96996 5.93701V4.93799Z" fill="#232323"/>
</g>
<defs>
<clipPath id="clip0_409_3624">
<rect width="16" height="16" fill="white"/>
</clipPath>
</defs>
</svg>
