<svg width="16" height="16" viewBox="0 0 16 16" fill="none" xmlns="http://www.w3.org/2000/svg">
<path d="M12 5.00299L16 8.00299L12 11.003V9.00299H8V7.00299H12V5.00299Z" fill="#232323"/>
<path d="M11.1901 4.173C11.1901 4.027 11.1581 3.88277 11.0965 3.75044C11.0348 3.6181 10.9449 3.50089 10.8331 3.40701C10.7965 3.37627 10.7577 3.3482 10.7171 3.32301C9.97847 2.73511 9.11154 2.32988 8.18675 2.1403C7.26196 1.95072 6.30547 1.98214 5.39512 2.23201C4.12674 2.5848 3.00935 3.34444 2.21476 4.39415C1.42017 5.44385 0.992348 6.72548 0.99711 8.042C1.00451 9.3586 1.44436 10.6363 2.24894 11.6785C3.05352 12.7207 4.17826 13.4696 5.45011 13.81C6.35614 14.049 7.30555 14.0724 8.22227 13.8784C9.13898 13.6844 9.99751 13.2785 10.7291 12.693C10.8701 12.6028 10.9862 12.4786 11.0668 12.3318C11.1473 12.1851 11.1897 12.0204 11.1901 11.853C11.1901 11.5878 11.0847 11.3334 10.8972 11.1459C10.7097 10.9584 10.4553 10.853 10.1901 10.853C9.94918 10.8527 9.71623 10.9393 9.5341 11.097C9.04459 11.5023 8.46526 11.7847 7.8444 11.9206C7.22354 12.0565 6.57919 12.0419 5.96513 11.878C5.11615 11.6529 4.36514 11.154 3.82853 10.4586C3.29192 9.76327 2.99968 8.91033 2.99711 8.03201C2.99127 7.15362 3.27531 6.29783 3.80522 5.59725C4.33512 4.89668 5.08126 4.39045 5.92808 4.15701C6.54762 3.98498 7.19958 3.96533 7.82835 4.09976C8.45712 4.23418 9.04406 4.51868 9.5391 4.929L9.5471 4.93701C9.54776 4.93701 9.54844 4.93701 9.54911 4.93701C9.72845 5.08847 9.95536 5.17201 10.1901 5.173C10.4553 5.173 10.7097 5.06764 10.8972 4.88011C11.0847 4.69257 11.1901 4.43822 11.1901 4.173Z" fill="#232323"/>
</svg>
