<svg width="16" height="16" viewBox="0 0 16 16" fill="none" xmlns="http://www.w3.org/2000/svg">
<g clip-path="url(#clip0_409_3597)">
<path d="M7.76018 5.98999L7.65018 7.30699C7.23265 7.46168 6.84445 7.68621 6.50218 7.97099L5.30518 7.40699L4.05518 9.57299L5.14118 10.327C5.10246 10.5459 5.08238 10.7677 5.08118 10.99C5.08155 11.2132 5.10096 11.436 5.13918 11.656L4.05518 12.407L5.30518 14.573L6.49918 14.01C6.84235 14.2936 7.23122 14.5167 7.64918 14.67L7.75918 15.99H10.2592L10.3702 14.673C10.7877 14.5183 11.1759 14.2938 11.5182 14.009L12.7152 14.573L13.9652 12.407L12.8792 11.653C12.9179 11.4341 12.938 11.2123 12.9392 10.99C12.9387 10.7671 12.9193 10.5446 12.8812 10.325L13.9652 9.57299L12.7152 7.40699L11.5212 7.96999C11.178 7.68643 10.7891 7.46325 10.3712 7.30999L10.2602 5.98999H7.76018ZM9.01018 9.56099C9.38917 9.56099 9.75264 9.71155 10.0206 9.97954C10.2886 10.2475 10.4392 10.611 10.4392 10.99C10.4392 11.369 10.2886 11.7325 10.0206 12.0004C9.75264 12.2684 9.38917 12.419 9.01018 12.419C8.63118 12.419 8.26771 12.2684 7.99972 12.0004C7.73173 11.7325 7.58118 11.369 7.58118 10.99C7.58118 10.611 7.73173 10.2475 7.99972 9.97954C8.26771 9.71155 8.63118 9.56099 9.01018 9.56099Z" fill="#232323"/>
<path d="M7.19004 6.26003L6.85204 5.54303C7.02289 5.33727 7.15748 5.10394 7.25004 4.85303L8.04004 4.78703V3.28703L7.25004 3.22103C7.20443 3.09548 7.14822 2.97405 7.08204 2.85803C7.01482 2.74236 6.93788 2.63263 6.85204 2.53003L7.19004 1.81403L5.89104 1.06403L5.43904 1.71403C5.17551 1.66956 4.90634 1.67024 4.64304 1.71603L4.19004 1.06403L2.89104 1.81403L3.22904 2.53103C3.05854 2.73685 2.92429 2.97018 2.83204 3.22103L2.04004 3.28703V4.78703L2.83204 4.85303C2.87738 4.97819 2.93325 5.09929 2.99904 5.21503C3.06621 5.33103 3.14316 5.4411 3.22904 5.54403L2.89104 6.26003L4.19004 7.01003L4.64204 6.36003C4.90562 6.40416 5.17479 6.40315 5.43804 6.35703L5.89104 7.01003L7.19004 6.26003ZM5.47004 4.78003C5.37244 4.83645 5.26467 4.87306 5.15289 4.88776C5.04112 4.90247 4.92755 4.89497 4.81868 4.86571C4.70981 4.83645 4.60778 4.786 4.51844 4.71724C4.4291 4.64848 4.3542 4.56278 4.29804 4.46503C4.18464 4.26821 4.15401 4.03442 4.21289 3.81504C4.27177 3.59565 4.41533 3.40862 4.61204 3.29503C4.80873 3.18154 5.04243 3.15076 5.2618 3.20945C5.48117 3.26813 5.66828 3.41149 5.78204 3.60803C5.83839 3.70546 5.87499 3.81305 5.88976 3.92463C5.90452 4.03622 5.89716 4.14962 5.8681 4.25836C5.83903 4.3671 5.78883 4.46905 5.72036 4.55839C5.65189 4.64772 5.56649 4.7227 5.46904 4.77903L5.47004 4.78003Z" fill="#232323"/>
</g>
<defs>
<clipPath id="clip0_409_3597">
<rect width="16" height="16" fill="white"/>
</clipPath>
</defs>
</svg>
