<svg width="16" height="16" viewBox="0 0 16 16" fill="none" xmlns="http://www.w3.org/2000/svg">
<path d="M11.6598 10.285L10.2378 11.707L13.2478 14.717C14.2068 15.654 15.6128 14.217 14.6538 13.279L11.6598 10.285Z" fill="#232323"/>
<path d="M6.4502 1C4.9915 1 3.59256 1.57946 2.56111 2.61091C1.52966 3.64236 0.950195 5.04131 0.950195 6.5C0.950195 7.95869 1.52966 9.35764 2.56111 10.3891C3.59256 11.4205 4.9915 12 6.4502 12C7.90889 12 9.30783 11.4205 10.3393 10.3891C11.3707 9.35764 11.9502 7.95869 11.9502 6.5C11.9502 5.04131 11.3707 3.64236 10.3393 2.61091C9.30783 1.57946 7.90889 1 6.4502 1ZM6.4502 3C7.37845 3 8.26869 3.36875 8.92507 4.02513C9.58145 4.6815 9.9502 5.57174 9.9502 6.5C9.9502 7.42826 9.58145 8.3185 8.92507 8.97487C8.26869 9.63125 7.37845 10 6.4502 10C5.52194 10 4.6317 9.63125 3.97532 8.97487C3.31894 8.3185 2.9502 7.42826 2.9502 6.5C2.9502 5.57174 3.31894 4.6815 3.97532 4.02513C4.6317 3.36875 5.52194 3 6.4502 3Z" fill="#232323"/>
</svg>
