<svg width="16" height="16" viewBox="0 0 16 16" fill="none" xmlns="http://www.w3.org/2000/svg">
<path d="M8 1.03003C7.73479 1.03003 7.48045 1.13539 7.29291 1.32292C7.10537 1.51046 7 1.76481 7 2.03003C7 2.03136 7 2.0327 7 2.03403V7.02603C7 7.02736 7 7.0287 7 7.03003C7 7.29525 7.10537 7.5496 7.29291 7.73713C7.48045 7.92467 7.73479 8.03003 8 8.03003C8.26522 8.03003 8.51956 7.92467 8.70709 7.73713C8.89463 7.5496 9 7.29525 9 7.03003C9 7.0287 9 7.02736 9 7.02603V2.03403C9 2.0327 9 2.03136 9 2.03003C9 1.76481 8.89463 1.51046 8.70709 1.32292C8.51956 1.13539 8.26522 1.03003 8 1.03003Z" fill="#232323"/>
<path d="M4.15977 3.81006C4.01377 3.81004 3.86953 3.84198 3.73719 3.90366C3.60486 3.96533 3.48764 4.05524 3.39376 4.16705C3.36303 4.20366 3.33496 4.24243 3.30976 4.28305C2.72186 5.02166 2.31664 5.88866 2.12706 6.81345C1.93748 7.73824 1.9689 8.69472 2.21876 9.60507C2.57155 10.8735 3.3312 11.9908 4.3809 12.7854C5.4306 13.58 6.71225 14.0078 8.02877 14.0031C9.34538 13.9956 10.6231 13.5558 11.6652 12.7513C12.7074 11.9467 13.4563 10.8219 13.7968 9.55005C14.0358 8.64402 14.0593 7.69462 13.8653 6.77789C13.6713 5.86116 13.2653 5.00261 12.6798 4.27106C12.5895 4.13004 12.4653 4.01396 12.3186 3.93341C12.1718 3.85287 12.0072 3.81044 11.8398 3.81006C11.5745 3.81006 11.3202 3.91543 11.1327 4.10297C10.9451 4.2905 10.8398 4.54484 10.8398 4.81006C10.8394 5.05098 10.9261 5.28393 11.0838 5.46606C11.4891 5.95557 11.7715 6.53493 11.9074 7.15579C12.0432 7.77665 12.0286 8.421 11.8648 9.03506C11.6396 9.88404 11.1407 10.6351 10.4454 11.1717C9.75002 11.7083 8.89708 12.0005 8.01876 12.0031C7.14038 12.0089 6.28458 11.7248 5.58401 11.1949C4.88344 10.665 4.37721 9.91887 4.14376 9.07205C3.97174 8.45251 3.9521 7.80058 4.08653 7.17181C4.22095 6.54304 4.50545 5.9561 4.91577 5.46106L4.92376 5.45306C4.92376 5.4524 4.92376 5.45172 4.92376 5.45105C5.07523 5.27171 5.15878 5.0448 5.15977 4.81006C5.15977 4.54484 5.05441 4.2905 4.86688 4.10297C4.67934 3.91543 4.42499 3.81006 4.15977 3.81006Z" fill="#232323"/>
</svg>
