<svg width="16" height="16" viewBox="0 0 16 16" fill="none" xmlns="http://www.w3.org/2000/svg">
<g clip-path="url(#clip0_409_3593)">
<path d="M8.00022 2V11.023H11.0022C11.9412 11.023 12.7712 10.651 13.3012 10.064C13.8312 9.478 14.0672 8.72799 14.0572 7.99799C14.0534 7.24314 13.7722 6.51603 13.2672 5.95499C12.7412 5.37799 11.9232 5 11.0022 5H10.0002V2H8.00022ZM2.00622 3L1.99822 5L4.92022 5.01199H4.92222C4.86722 5.01199 5.00622 5.17199 5.00622 5.09399V6.01801H4.00222C2.28622 6.01801 0.97222 7.14301 0.94722 8.50201C0.93522 9.18201 1.25322 9.86501 1.80922 10.324C2.36522 10.783 3.12422 11.024 4.00222 11.024H7.00622V5.09399C7.00622 3.92299 6.11922 3.01199 4.92222 3.01199L2.00622 3ZM10.0002 7H11.0022C11.4242 7 11.6282 7.12601 11.7892 7.30301C11.9512 7.48001 12.0532 7.74999 12.0572 8.02499C12.0612 8.30099 11.9682 8.55499 11.8172 8.72299C11.6652 8.88999 11.4612 9.02301 11.0022 9.02301H10.0002V7ZM4.00222 8.01801H5.00622V9.02399H4.00222C3.48222 9.02399 3.20822 8.888 3.08222 8.784C2.95622 8.679 2.94622 8.60899 2.94722 8.53699C2.95022 8.39299 3.03222 8.017 4.00222 8.017V8.01801ZM3.00222 11.293L0.649223 13.646C0.602735 13.6924 0.565841 13.7475 0.540657 13.8082C0.515473 13.8689 0.502488 13.9339 0.502442 13.9996C0.502395 14.0653 0.515292 14.1304 0.54039 14.1911C0.565489 14.2518 0.602298 14.307 0.64872 14.3535C0.695142 14.4 0.750265 14.4369 0.810944 14.4621C0.871623 14.4873 0.936668 14.5002 1.00237 14.5003C1.06806 14.5003 1.13313 14.4874 1.19384 14.4623C1.25455 14.4372 1.30974 14.4004 1.35622 14.354L3.00222 12.707L5.00222 14.707L7.00222 12.707L9.00222 14.707L11.0022 12.707L13.0022 14.707L15.3562 12.354C15.404 12.3079 15.4421 12.2527 15.4683 12.1917C15.4945 12.1307 15.5083 12.0651 15.5088 11.9987C15.5094 11.9323 15.4968 11.8665 15.4716 11.805C15.4465 11.7436 15.4094 11.6878 15.3624 11.6408C15.3155 11.5939 15.2597 11.5567 15.1982 11.5316C15.1368 11.5064 15.0709 11.4938 15.0045 11.4944C14.9381 11.495 14.8725 11.5087 14.8115 11.5349C14.7505 11.5611 14.6953 11.5992 14.6492 11.647L13.0022 13.293L11.0022 11.293L9.00222 13.293L7.00222 11.293L5.00222 13.293L3.00222 11.293Z" fill="#232323"/>
</g>
<defs>
<clipPath id="clip0_409_3593">
<rect width="16" height="16" fill="white"/>
</clipPath>
</defs>
</svg>
