<svg width="16" height="16" viewBox="0 0 16 16" fill="none" xmlns="http://www.w3.org/2000/svg">
<g clip-path="url(#clip0_409_3575)">
<path d="M8 1.016C6.14348 1.016 4.36301 1.7535 3.05025 3.06625C1.7375 4.37901 1 6.15948 1 8.016C1 9.87251 1.7375 11.653 3.05025 12.9657C4.36301 14.2785 6.14348 15.016 8 15.016C9.5093 15.0183 10.9789 14.5328 12.1898 13.6317C13.4006 12.7307 14.2878 11.4624 14.719 10.016H12.563C11.788 11.776 10.046 13.016 8 13.016C6.67392 13.016 5.40215 12.4892 4.46447 11.5515C3.52678 10.6139 3 9.34208 3 8.016C3 6.68992 3.52678 5.41815 4.46447 4.48047C5.40215 3.54278 6.67392 3.016 8 3.016C10.046 3.016 11.788 4.256 12.563 6.016H14.719C14.2878 4.56961 13.4006 3.30133 12.1898 2.40028C10.9789 1.49923 9.5093 1.01367 8 1.016Z" fill="#232323"/>
<path d="M9 7.01599L15 1.01599V7.01599H9Z" fill="#232323"/>
</g>
<defs>
<clipPath id="clip0_409_3575">
<rect width="16" height="16" fill="white"/>
</clipPath>
</defs>
</svg>
