<svg width="16" height="16" viewBox="0 0 16 16" fill="none" xmlns="http://www.w3.org/2000/svg">
<g clip-path="url(#clip0_409_3577)">
<path fill-rule="evenodd" clip-rule="evenodd" d="M10 2C10 1.46957 9.78926 0.960858 9.41418 0.585785C9.03911 0.210712 8.53043 0 8 0C7.46957 0 6.96089 0.210712 6.58582 0.585785C6.21074 0.960858 6 1.46957 6 2C6 2.53043 6.21074 3.03914 6.58582 3.41422C6.96089 3.78929 7.46957 4 8 4C8.53043 4 9.03911 3.78929 9.41418 3.41422C9.78926 3.03914 10 2.53043 10 2ZM10 8C10 7.46957 9.78926 6.96086 9.41418 6.58578C9.03911 6.21071 8.53043 6 8 6C7.46957 6 6.96089 6.21071 6.58582 6.58578C6.21074 6.96086 6 7.46957 6 8C6 8.53043 6.21074 9.03914 6.58582 9.41422C6.96089 9.78929 7.46957 10 8 10C8.53043 10 9.03911 9.78929 9.41418 9.41422C9.78926 9.03914 10 8.53043 10 8ZM10 14C10 13.4696 9.78926 12.9609 9.41418 12.5858C9.03911 12.2107 8.53043 12 8 12C7.46957 12 6.96089 12.2107 6.58582 12.5858C6.21074 12.9609 6 13.4696 6 14C6 14.5304 6.21074 15.0391 6.58582 15.4142C6.96089 15.7893 7.46957 16 8 16C8.53043 16 9.03911 15.7893 9.41418 15.4142C9.78926 15.0391 10 14.5304 10 14Z" fill="#232323"/>
</g>
<defs>
<clipPath id="clip0_409_3577">
<rect width="16" height="16" fill="white"/>
</clipPath>
</defs>
</svg>
