<svg width="16" height="16" viewBox="0 0 16 16" fill="none" xmlns="http://www.w3.org/2000/svg">
<path d="M5 2C4.73478 2 4.48044 2.10536 4.29291 2.29289C4.10537 2.48043 4 2.73478 4 3V5H2C1.73478 5 1.48044 5.10536 1.29291 5.29289C1.10537 5.48043 1 5.73478 1 6C1 6.26522 1.10537 6.51957 1.29291 6.70711C1.48044 6.89464 1.73478 7 2 7H5C6 7 6 6 6 6V3C6 2.73478 5.89463 2.48043 5.70709 2.29289C5.51956 2.10536 5.26522 2 5 2ZM11 2C10.7348 2 10.4804 2.10536 10.2929 2.29289C10.1054 2.48043 10 2.73478 10 3V6C10 6 10 7 11 7H14C14.2652 7 14.5196 6.89464 14.7071 6.70711C14.8946 6.51957 15 6.26522 15 6C15 5.73478 14.8946 5.48043 14.7071 5.29289C14.5196 5.10536 14.2652 5 14 5H12V3C12 2.73478 11.8946 2.48043 11.7071 2.29289C11.5196 2.10536 11.2652 2 11 2ZM2 9C1.73478 9 1.48044 9.10536 1.29291 9.29289C1.10537 9.48043 1 9.73478 1 10C1 10.2652 1.10537 10.5196 1.29291 10.7071C1.48044 10.8946 1.73478 11 2 11H4V13C4 13.2652 4.10537 13.5196 4.29291 13.7071C4.48044 13.8946 4.73478 14 5 14C5.26522 14 5.51956 13.8946 5.70709 13.7071C5.89463 13.5196 6 13.2652 6 13V10C6 10 6 9 5 9H2ZM11 9C11 9 10 9 10 10V13C10 13.2652 10.1054 13.5196 10.2929 13.7071C10.4804 13.8946 10.7348 14 11 14C11.2652 14 11.5196 13.8946 11.7071 13.7071C11.8946 13.5196 12 13.2652 12 13V11H14C14.2652 11 14.5196 10.8946 14.7071 10.7071C14.8946 10.5196 15 10.2652 15 10C15 9.73478 14.8946 9.48043 14.7071 9.29289C14.5196 9.10536 14.2652 9 14 9H11Z" fill="#232323"/>
</svg>
