<svg width="16" height="16" viewBox="0 0 16 16" fill="none" xmlns="http://www.w3.org/2000/svg">
<g clip-path="url(#clip0_409_3572)">
<path d="M2.5 2C1.678 2 1 2.678 1 3.5C1 4.322 1.678 5 2.5 5C3.322 5 4 4.322 4 3.5C4 2.678 3.322 2 2.5 2ZM2.5 6C1.678 6 1 6.678 1 7.5C1 8.322 1.678 9 2.5 9C3.322 9 4 8.322 4 7.5C4 6.678 3.322 6 2.5 6ZM2.5 10C1.678 10 1 10.678 1 11.5C1 12.322 1.678 13 2.5 13C3.322 13 4 12.322 4 11.5C4 10.678 3.322 10 2.5 10Z" fill="#232323"/>
<path d="M10 2L4.93701 9H8.00001V12C8.00001 12.2652 8.10537 12.5196 8.29291 12.7071C8.48044 12.8946 8.7348 13 9.00001 13H11C11.2652 13 11.5196 12.8946 11.7071 12.7071C11.8947 12.5196 12 12.2652 12 12V9H15.188L10 2Z" fill="#232323"/>
</g>
<defs>
<clipPath id="clip0_409_3572">
<rect width="16" height="16" fill="white"/>
</clipPath>
</defs>
</svg>
