<svg width="16" height="16" viewBox="0 0 16 16" fill="none" xmlns="http://www.w3.org/2000/svg">
<path d="M2 2C1 2 1 3 1 3V6C1 6.26522 1.10537 6.51957 1.29291 6.70711C1.48044 6.89464 1.73478 7 2 7C2.26522 7 2.51956 6.89464 2.70709 6.70711C2.89463 6.51957 3 6.26522 3 6V4H5C5.26522 4 5.51956 3.89464 5.70709 3.70711C5.89463 3.51957 6 3.26522 6 3C6 2.73478 5.89463 2.48043 5.70709 2.29289C5.51956 2.10536 5.26522 2 5 2H2ZM11 2C10.7348 2 10.4804 2.10536 10.2929 2.29289C10.1054 2.48043 10 2.73478 10 3C10 3.26522 10.1054 3.51957 10.2929 3.70711C10.4804 3.89464 10.7348 4 11 4H13V6C13 6.26522 13.1054 6.51957 13.2929 6.70711C13.4804 6.89464 13.7348 7 14 7C14.2652 7 14.5196 6.89464 14.7071 6.70711C14.8946 6.51957 15 6.26522 15 6V3C15 2 14 2 14 2H11ZM2 9C1.73478 9 1.48044 9.10536 1.29291 9.29289C1.10537 9.48043 1 9.73478 1 10V13C1 14 2 14 2 14H5C5.26522 14 5.51956 13.8946 5.70709 13.7071C5.89463 13.5196 6 13.2652 6 13C6 12.7348 5.89463 12.4804 5.70709 12.2929C5.51956 12.1054 5.26522 12 5 12H3V10C3 9.73478 2.89463 9.48043 2.70709 9.29289C2.51956 9.10536 2.26522 9 2 9ZM14 9C13.7348 9 13.4804 9.10536 13.2929 9.29289C13.1054 9.48043 13 9.73478 13 10V12H11C10.7348 12 10.4804 12.1054 10.2929 12.2929C10.1054 12.4804 10 12.7348 10 13C10 13.2652 10.1054 13.5196 10.2929 13.7071C10.4804 13.8946 10.7348 14 11 14H14C14 14 15 14 15 13V10C15 9.73478 14.8946 9.48043 14.7071 9.29289C14.5196 9.10536 14.2652 9 14 9Z" fill="#232323"/>
</svg>
