<svg width="16" height="16" viewBox="0 0 16 16" fill="none" xmlns="http://www.w3.org/2000/svg">
<g clip-path="url(#clip0_409_3573)">
<path d="M2.5 13C1.678 13 1 12.322 1 11.5C1 10.678 1.678 10 2.5 10C3.322 10 4 10.678 4 11.5C4 12.322 3.322 13 2.5 13ZM2.5 9C1.678 9 1 8.322 1 7.5C1 6.678 1.678 6 2.5 6C3.322 6 4 6.678 4 7.5C4 8.322 3.322 9 2.5 9ZM2.5 5C1.678 5 1 4.322 1 3.5C1 2.678 1.678 2 2.5 2C3.322 2 4 2.678 4 3.5C4 4.322 3.322 5 2.5 5Z" fill="#232323"/>
<path d="M9.00001 3C8.7348 3 8.48044 3.10536 8.29291 3.29289C8.10537 3.48043 8.00001 3.73478 8.00001 4V7H4.93701L10 14L15.188 7H12V4C12 3.73478 11.8947 3.48043 11.7071 3.29289C11.5196 3.10536 11.2652 3 11 3H9.00001Z" fill="#232323"/>
</g>
<defs>
<clipPath id="clip0_409_3573">
<rect width="16" height="16" fill="white"/>
</clipPath>
</defs>
</svg>
