<svg width="16" height="16" viewBox="0 0 16 16" fill="none" xmlns="http://www.w3.org/2000/svg">
<path d="M5 4.00299C4.73478 4.00299 4.48043 4.10835 4.29289 4.29588C4.10536 4.48342 4 4.73777 4 5.00299C4.00006 5.26819 4.10545 5.5225 4.293 5.70999L6.586 8.00299L4.293 10.296C4.10545 10.4835 4.00006 10.7378 4 11.003C4 11.2682 4.10536 11.5226 4.29289 11.7101C4.48043 11.8976 4.73478 12.003 5 12.003C5.26519 12.0029 5.51951 11.8975 5.707 11.71L8 9.41699L10.283 11.7C10.3762 11.7959 10.4877 11.8721 10.6108 11.9241C10.734 11.9762 10.8663 12.003 11 12.003C11.2652 12.003 11.5196 11.8976 11.7071 11.7101C11.8946 11.5226 12 11.2682 12 11.003C11.9999 10.7378 11.8945 10.4835 11.707 10.296L9.414 8.00299L11.697 5.71999C11.7929 5.6268 11.8691 5.51534 11.9211 5.39218C11.9732 5.26903 12 5.13669 12 5.00299C12 4.73777 11.8946 4.48342 11.7071 4.29588C11.5196 4.10835 11.2652 4.00299 11 4.00299C10.7348 4.00305 10.4805 4.10844 10.293 4.29599L8 6.58899L5.717 4.30599C5.71369 4.30263 5.71036 4.2993 5.707 4.29599C5.51951 4.10844 5.26519 4.00305 5 4.00299Z" fill="#232323"/>
</svg>
