<svg width="16" height="16" viewBox="0 0 16 16" fill="none" xmlns="http://www.w3.org/2000/svg">
<g clip-path="url(#clip0_1306_3670)">
<path fill-rule="evenodd" clip-rule="evenodd" d="M8.55 15.85C8.41014 15.9375 8.19786 15.9987 8 16C7.79879 16.0012 7.59223 15.939 7.45 15.85L0.2 11.3C0.0595153 11.2122 0 11.1241 0 10.9999C0 10.8477 0.0720301 10.7799 0.2 10.7C0.2 10.7 7.30959 6.2378 7.45 6.15C7.59041 6.0622 7.80175 6 8.00038 6C8.199 6 8.39311 6.05825 8.55 6.15C8.70689 6.24175 15.8 10.7 15.8 10.7C15.9405 10.7878 16 10.8758 16 10.9999C16 11.1241 15.9405 11.2122 15.8 11.3L8.55 15.85ZM8 14C8.12366 13.9992 8.21259 13.9525 8.3 13.9L12.85 11.2005C12.9378 11.1478 13 11.0744 13 11C13 10.9255 12.9378 10.8521 12.85 10.7995L8.29688 8.1C8.20912 8.04732 8.12438 8 8.00023 8C7.87609 8 7.78776 8.04732 7.7 8.1L3.15 10.7995C3.07002 10.8474 3 10.9023 3 11C3 11.0976 3.0622 11.1478 3.15 11.2005L7.7 13.9C7.7889 13.9534 7.87424 14.0007 8 14Z" fill="#232323"/>
<path fill-rule="evenodd" clip-rule="evenodd" d="M8 9.99998C7.79879 10.0012 7.59223 9.93896 7.45 9.85L0.221565 5.33412C0.0810803 5.24636 0 5.15612 0 4.99993C0 4.84375 0.0935951 4.74569 0.221565 4.66575L7.45 0.15C7.59041 0.0621958 7.80175 0 8.00038 0C8.199 0 8.40959 0.0621958 8.55 0.15L15.7784 4.66575C15.9189 4.75351 16 4.8758 16 4.99993C16 5.12407 15.9189 5.24636 15.7784 5.33412L8.55 9.85C8.41014 9.93747 8.19786 9.99869 8 9.99998Z" fill="#232323"/>
</g>
<defs>
<clipPath id="clip0_1306_3670">
<rect width="16" height="16" fill="white"/>
</clipPath>
</defs>
</svg>
