<svg width="16" height="16" viewBox="0 0 16 16" fill="none" xmlns="http://www.w3.org/2000/svg">
<g clip-path="url(#clip0_876_27069)">
<path d="M13.42 14.83L13.424 14.826C13.5648 14.9629 13.7429 15.0553 13.9359 15.0917C14.1289 15.128 14.3283 15.1068 14.5093 15.0305C14.6903 14.9543 14.8448 14.8264 14.9536 14.6629C15.0624 14.4994 15.1206 14.3074 15.121 14.111C15.155 13.813 14.968 13.534 14.826 13.392L11.725 10.291L10.322 11.721L13.42 14.83Z" fill="white"/>
<path d="M6.5 1.00293C5.04131 1.00293 3.64236 1.58239 2.61091 2.61384C1.57946 3.64529 1 5.04424 1 6.50293C1 7.96162 1.57946 9.36057 2.61091 10.392C3.64236 11.4235 5.04131 12.0029 6.5 12.0029C7.95869 12.0029 9.35764 11.4235 10.3891 10.392C11.4205 9.36057 12 7.96162 12 6.50293C12 5.04424 11.4205 3.64529 10.3891 2.61384C9.35764 1.58239 7.95869 1.00293 6.5 1.00293ZM6.5 3.00293C7.42826 3.00293 8.3185 3.37168 8.97487 4.02806C9.63125 4.68443 10 5.57467 10 6.50293C10 7.43119 9.63125 8.32143 8.97487 8.9778C8.3185 9.63418 7.42826 10.0029 6.5 10.0029C5.57174 10.0029 4.6815 9.63418 4.02513 8.9778C3.36875 8.32143 3 7.43119 3 6.50293C3 5.57467 3.36875 4.68443 4.02513 4.02806C4.6815 3.37168 5.57174 3.00293 6.5 3.00293Z" fill="white"/>
</g>
<defs>
<clipPath id="clip0_876_27069">
<rect width="16" height="16" fill="white"/>
</clipPath>
</defs>
</svg>
